<svg xmlns="http://www.w3.org/2000/svg" viewBox="0 0 32 40" x="0px" y="0px"><rect x="4" width="24" height="6" rx="2" ry="2"/><path d="M21.9971,24.8013c-.1035-.3188-.3604-.5645-.6831-.6543l-2.7778-.7725-1.7095-2.5132c-.3721-.5469-1.2812-.5469-1.6533,0l-1.7095,2.5132-2.7778,.7725c-.3228,.0898-.5796,.3354-.6831,.6543s-.0405,.6685,.1685,.9312l1.9277,2.4263-.2241,2.7729c-.0278,.3403,.1201,.6709,.3926,.8774,.271,.2061,.6294,.2588,.9507,.1411l2.7817-1.0278,2.7817,1.0278c.1128,.0415,.23,.062,.3467,.062,.2148,0,.4277-.0693,.6045-.2031,.272-.2065,.4199-.5371,.3921-.8774l-.2241-2.7729,1.9277-2.4263c.209-.2622,.272-.6118,.1685-.9312Z"/><path d="M15.9785,22.7236c-.5522,0-1-.4478-1-1v-2.5962c0-.5522,.4478-1,1-1s1,.4478,1,1v2.5962c0,.5522-.4478,1-1,1Z"/><path d="M12,8H6v7c0,.4,.23,.75,.59,.91l5.41,2.4098V8Z"/><path d="M20,8v10.3065l5.41-2.3965c.36-.16,.59-.5099,.59-.91v-7h-6Z"/><path d="M18,8h-4v11.2106l1.57,.6993c.13,.06,.27,.09,.41,.09s.27-.03,.4-.09l1.62-.7176V8Z"/><text x="0" y="47" fill="#000000" font-size="5px" font-weight="bold" font-family="'Helvetica Neue', Helvetica, Arial-Unicode, Arial, Sans-serif">Created by Iqbal Widianto</text><text x="0" y="52" fill="#000000" font-size="5px" font-weight="bold" font-family="'Helvetica Neue', Helvetica, Arial-Unicode, Arial, Sans-serif">from the Noun Project</text></svg>