<svg id="Layer_1" data-name="Layer 1" xmlns="http://www.w3.org/2000/svg" viewBox="0 0 501.1 199.5"><defs><style>.cls-1{fill:#6aadff;}.cls-2{fill:#7fe7ff;}.cls-3,.cls-4,.cls-6{fill:#fff;}.cls-4,.cls-5,.cls-6{isolation:isolate;}.cls-4{font-size:7.66px;font-family:Montserrat-SemiBold, Montserrat;font-weight:600;}.cls-5{font-size:6.7px;fill:#231f20;font-family:Montserrat-Regular, Montserrat;}.cls-6{font-size:7.02px;font-family:Montserrat-Medium, Montserrat;font-weight:500;}</style></defs><path class="cls-1" d="M151.5,0a2.93,2.93,0,0,0-2.9,3h0V196.5a2.91,2.91,0,0,0,2.8,3H498.2a3,3,0,0,0,2.9-3h0V3a3,3,0,0,0-2.8-3H151.5Z"/><path class="cls-2" d="M162.1,14.6a3.06,3.06,0,0,0-2.9,3V140a3.06,3.06,0,0,0,2.9,3h70a3.06,3.06,0,0,0,2.9-3V17.6a3.06,3.06,0,0,0-2.9-3Z"/><path class="cls-3" d="M172.1,38.9h49.3a1.9,1.9,0,0,1,1.9,1.9V67.6a1.9,1.9,0,0,1-1.9,1.9H172.1a1.9,1.9,0,0,1-1.9-1.9V40.8A1.9,1.9,0,0,1,172.1,38.9Z"/><text class="cls-4" transform="translate(175.36 33.12)">Dashb</text><text class="cls-4" transform="translate(200.79 33.12)">o</text><text class="cls-4" transform="translate(205.68 33.12)">a</text><text class="cls-4" transform="translate(210.33 33.12)">r</text><text class="cls-4" transform="translate(213.48 33.12)">d</text><path class="cls-2" d="M246.8,15a3.06,3.06,0,0,0-2.9,3V140.4a3.06,3.06,0,0,0,2.9,3h70a3.06,3.06,0,0,0,2.9-3V18.1a3.06,3.06,0,0,0-2.9-3Z"/><path class="cls-2" d="M331.5,15a3,3,0,0,0-2.9,3.2V76.6a3,3,0,0,0,2.9,3.2h70a3,3,0,0,0,2.8-3.2V18.3a3.18,3.18,0,0,0-2.8-3.3Z"/><path class="cls-2" d="M417.7,14.6a3.09,3.09,0,0,0-2.9,3.2V76.5a3,3,0,0,0,2.9,3.2h70a3.09,3.09,0,0,0,2.9-3.2V17.8a3,3,0,0,0-2.9-3.2Z"/><path class="cls-3" d="M172.1,73.6h49.3a1.9,1.9,0,0,1,1.9,1.9h0v26.8a1.9,1.9,0,0,1-1.9,1.9H172.1a1.9,1.9,0,0,1-1.9-1.9V75.5A1.84,1.84,0,0,1,172.1,73.6Z"/><path class="cls-3" d="M172.1,107.9h49.3a1.9,1.9,0,0,1,1.9,1.9v26.8a1.9,1.9,0,0,1-1.9,1.9H172.1a1.9,1.9,0,0,1-1.9-1.9V109.8A1.9,1.9,0,0,1,172.1,107.9Z"/><text class="cls-5" transform="translate(181.11 52.45)">I</text><text class="cls-5" transform="translate(183.13 52.45)">n</text><text class="cls-5" transform="translate(187.68 52.45)">cidents</text><text class="cls-5" transform="translate(186.43 60.49)">C</text><text class="cls-5" transform="translate(191.1 60.49)">ount</text><text class="cls-5" transform="translate(186.09 87.05)">Status</text><text class="cls-5" transform="translate(186.43 95.09)">C</text><text class="cls-5" transform="translate(191.1 95.09)">ount</text><text class="cls-5" transform="translate(174.8 122.46)">P</text><text class="cls-5" transform="translate(179.53 122.46)">er</text><text class="cls-5" transform="translate(186.27 122.46)">f</text><text class="cls-5" transform="translate(188.49 122.46)">o</text><text class="cls-5" transform="translate(192.69 122.46)">r</text><text class="cls-5" transform="translate(195.33 122.46)">ma</text><text class="cls-5" transform="translate(206.39 122.46)">n</text><text class="cls-5" transform="translate(210.94 122.46)">c</text><text class="cls-5" transform="translate(214.66 122.46)">e</text><text class="cls-5" transform="translate(186.43 130.5)">C</text><text class="cls-5" transform="translate(191.1 130.5)">ount</text><path class="cls-2" d="M162.1,147.6H279.9a2.9,2.9,0,0,1,2.9,2.9v41.1a2.9,2.9,0,0,1-2.9,2.9H162.1a2.9,2.9,0,0,1-2.9-2.9V150.5A2.9,2.9,0,0,1,162.1,147.6Z"/><path class="cls-3" d="M166.6,160.7h49.3a1.9,1.9,0,0,1,1.9,1.9v26.8a1.9,1.9,0,0,1-1.9,1.9H166.6a1.9,1.9,0,0,1-1.9-1.9V162.6A1.9,1.9,0,0,1,166.6,160.7Z"/><path class="cls-3" d="M225.9,160.7h49.3a1.9,1.9,0,0,1,1.9,1.9v26.8a1.9,1.9,0,0,1-1.9,1.9H225.9a1.9,1.9,0,0,1-1.9-1.9V162.6A1.84,1.84,0,0,1,225.9,160.7Z"/><text class="cls-4" transform="translate(176.55 156.68)">C</text><text class="cls-4" transform="translate(181.97 156.68)">ont</text><text class="cls-4" transform="translate(195.4 156.68)">r</text><text class="cls-4" transform="translate(198.57 156.68)">a</text><text class="cls-4" transform="translate(203.26 156.68)">c</text><text class="cls-4" transform="translate(207.75 156.68)">t Man</text><text class="cls-4" transform="translate(230.32 156.68)">a</text><text class="cls-4" transform="translate(235.01 156.68)">ge</text><text class="cls-4" transform="translate(245.09 156.68)">m</text><text class="cls-4" transform="translate(253.2 156.68)">en</text><text class="cls-4" transform="translate(263.13 156.68)">t</text><text class="cls-5" transform="translate(182.67 174.16)">Mu</text><text class="cls-5" transform="translate(193.58 174.16)">l</text><text class="cls-5" transform="translate(195.39 174.16)">ti</text><text class="cls-5" transform="translate(169.49 182.21)">O</text><text class="cls-5" transform="translate(175.12 182.21)">r</text><text class="cls-5" transform="translate(177.72 182.21)">ganisation</text><text class="cls-4" transform="translate(297.81 9.79)">C</text><text class="cls-4" transform="translate(303.23 9.79)">o</text><text class="cls-4" transform="translate(308.17 9.79)">r</text><text class="cls-4" transform="translate(311.32 9.79)">e Modules</text><text class="cls-5" transform="translate(244.1 174.16)">S</text><text class="cls-5" transform="translate(248.22 174.16)">L</text><text class="cls-5" transform="translate(252.19 174.16)">A</text><text class="cls-5" transform="translate(231.42 182.21)">S</text><text class="cls-5" transform="translate(235.54 182.21)">c</text><text class="cls-5" transform="translate(239.27 182.21)">h</text><text class="cls-5" transform="translate(243.82 182.21)">eduli</text><text class="cls-5" transform="translate(260.53 182.21)">n</text><text class="cls-5" transform="translate(265.07 182.21)">g</text><path class="cls-2" d="M289.4,147.6H407.2a2.9,2.9,0,0,1,2.9,2.9v41.1a2.9,2.9,0,0,1-2.9,2.9H289.4a2.9,2.9,0,0,1-2.9-2.9V150.5A2.9,2.9,0,0,1,289.4,147.6Z"/><path class="cls-2" d="M417.7,147.6h70a2.9,2.9,0,0,1,2.9,2.9v41.1a2.9,2.9,0,0,1-2.9,2.9h-70a2.9,2.9,0,0,1-2.9-2.9V150.5A2.9,2.9,0,0,1,417.7,147.6Z"/><text class="cls-4" transform="translate(312.58 157.68)">Self Se</text><text class="cls-4" transform="translate(338.9 157.68)">r</text><text class="cls-4" transform="translate(342.22 157.68)">vi</text><text class="cls-4" transform="translate(348.87 157.68)">c</text><text class="cls-4" transform="translate(353.26 157.68)">e</text><text class="cls-4" transform="translate(360.14 157.68)">P</text><text class="cls-4" transform="translate(365.61 157.68)">o</text><text class="cls-4" transform="translate(370.55 157.68)">r</text><text class="cls-4" transform="translate(373.87 157.68)">tal</text><path class="cls-3" d="M294,160.7h49.3a1.9,1.9,0,0,1,1.9,1.9v26.8a1.9,1.9,0,0,1-1.9,1.9H294a1.9,1.9,0,0,1-1.9-1.9V162.6A1.84,1.84,0,0,1,294,160.7Z"/><path class="cls-3" d="M353.1,159.4h49.3a1.9,1.9,0,0,1,1.9,1.9v26.8a1.9,1.9,0,0,1-1.9,1.9H353.1a1.9,1.9,0,0,1-1.9-1.9V161.3A1.84,1.84,0,0,1,353.1,159.4Z"/><text class="cls-5" transform="translate(307.65 174.16)">D</text><text class="cls-5" transform="translate(313.19 174.16)">e</text><text class="cls-5" transform="translate(317.14 174.16)">aler</text><text class="cls-5" transform="translate(305.27 182.21)">C</text><text class="cls-5" transform="translate(309.94 182.21)">onsole</text><text class="cls-5" transform="translate(359.65 173.9)">C</text><text class="cls-5" transform="translate(364.32 173.9)">omma</text><text class="cls-5" transform="translate(386.7 173.9)">n</text><text class="cls-5" transform="translate(391.25 173.9)">d</text><text class="cls-5" transform="translate(366.41 181.94)">C</text><text class="cls-5" transform="translate(371.07 181.94)">ent</text><text class="cls-5" transform="translate(382.38 181.94)">r</text><text class="cls-5" transform="translate(384.99 181.94)">e</text><text class="cls-4" transform="translate(440.31 157.68)">KBase</text><path class="cls-3" d="M428,160.7a1.88,1.88,0,0,0-1.9,1.8h0v25.6a1.88,1.88,0,0,0,1.9,1.8h49.3a1.88,1.88,0,0,0,1.9-1.8V162.5a1.81,1.81,0,0,0-1.9-1.8H428Z"/><text class="cls-5" transform="translate(433.56 174.16)">K</text><text class="cls-5" transform="translate(438.25 174.16)">n</text><text class="cls-5" transform="translate(442.81 174.16)">o</text><text class="cls-5" transform="translate(446.91 174.16)">wledge</text><text class="cls-5" transform="translate(444.53 182.21)">Base</text><path class="cls-3" d="M257.1,38.9h49.3a1.9,1.9,0,0,1,1.9,1.9V67.6a1.9,1.9,0,0,1-1.9,1.9H257.1a1.9,1.9,0,0,1-1.9-1.9V40.8A1.9,1.9,0,0,1,257.1,38.9Z"/><path class="cls-3" d="M257.1,73.6h49.3a1.9,1.9,0,0,1,1.9,1.9h0v26.8a1.9,1.9,0,0,1-1.9,1.9H257.1a1.9,1.9,0,0,1-1.9-1.9h0V75.5A1.84,1.84,0,0,1,257.1,73.6Z"/><path class="cls-3" d="M257.1,107.9h49.3a1.9,1.9,0,0,1,1.9,1.9v26.8a1.9,1.9,0,0,1-1.9,1.9H257.1a1.9,1.9,0,0,1-1.9-1.9V109.8A1.9,1.9,0,0,1,257.1,107.9Z"/><text class="cls-4" transform="translate(265.05 24.69)">I</text><text class="cls-4" transform="translate(267.5 24.69)">n</text><text class="cls-4" transform="translate(272.78 24.69)">cident</text><text class="cls-4" transform="translate(255.94 33.89)">Man</text><text class="cls-4" transform="translate(273.15 33.89)">a</text><text class="cls-4" transform="translate(277.84 33.89)">ge</text><text class="cls-4" transform="translate(287.92 33.89)">m</text><text class="cls-4" transform="translate(296.02 33.89)">en</text><text class="cls-4" transform="translate(305.96 33.89)">t</text><text class="cls-5" transform="translate(267.74 53.49)">I</text><text class="cls-5" transform="translate(269.77 53.49)">n</text><text class="cls-5" transform="translate(274.32 53.49)">cident</text><text class="cls-5" transform="translate(271.78 61.54)">T</text><text class="cls-5" transform="translate(275.54 61.54)">i</text><text class="cls-5" transform="translate(277.34 61.54)">c</text><text class="cls-5" transform="translate(281.07 61.54)">k</text><text class="cls-5" transform="translate(284.95 61.54)">et</text><text class="cls-5" transform="translate(269.67 87.05)">Se</text><text class="cls-5" transform="translate(277.84 87.05)">r</text><text class="cls-5" transform="translate(280.62 87.05)">vi</text><text class="cls-5" transform="translate(286.06 87.05)">c</text><text class="cls-5" transform="translate(289.78 87.05)">e</text><text class="cls-5" transform="translate(271.99 95.09)">O</text><text class="cls-5" transform="translate(277.62 95.09)">r</text><text class="cls-5" transform="translate(280.22 95.09)">der</text><text class="cls-5" transform="translate(259.32 126.49)">R</text><text class="cls-5" transform="translate(264.16 126.49)">e</text><text class="cls-5" transform="translate(268.12 126.49)">a</text><text class="cls-5" transform="translate(272.07 126.49)">l</text><text class="cls-5" transform="translate(273.88 126.49)">ti</text><text class="cls-5" transform="translate(278.41 126.49)">m</text><text class="cls-5" transform="translate(285.53 126.49)">e S</text><text class="cls-5" transform="translate(295.46 126.49)">L</text><text class="cls-5" transform="translate(299.41 126.49)">A</text><text class="cls-4" transform="translate(336.96 33.12)">Repo</text><text class="cls-4" transform="translate(357.52 33.12)">r</text><text class="cls-4" transform="translate(360.84 33.12)">t Module</text><path class="cls-3" d="M341.8,38.9h49.3a1.9,1.9,0,0,1,1.9,1.9V67.6a1.9,1.9,0,0,1-1.9,1.9H341.8a1.9,1.9,0,0,1-1.9-1.9V40.8A1.9,1.9,0,0,1,341.8,38.9Z"/><text class="cls-5" transform="translate(358.42 52.38)">C</text><text class="cls-5" transform="translate(363.19 52.38)">ase</text><text class="cls-5" transform="translate(354.69 60.43)">Insight</text><path class="cls-2" d="M331.5,85.7h70a2.9,2.9,0,0,1,2.9,2.9v52a2.9,2.9,0,0,1-2.9,2.9h-70a2.9,2.9,0,0,1-2.9-2.9v-52A2.9,2.9,0,0,1,331.5,85.7Z"/><text class="cls-4" transform="translate(348.09 96.95)">Li</text><text class="cls-4" transform="translate(354.89 96.95)">v</text><text class="cls-4" transform="translate(359.21 96.95)">e Chat</text><path class="cls-3" d="M341.8,104.7h49.3a1.9,1.9,0,0,1,1.9,1.9v26.8a1.9,1.9,0,0,1-1.9,1.9H341.8a1.9,1.9,0,0,1-1.9-1.9V106.6A1.84,1.84,0,0,1,341.8,104.7Z"/><text class="cls-5" transform="translate(351.98 123.24)">T</text><text class="cls-5" transform="translate(355.74 123.24)">i</text><text class="cls-5" transform="translate(357.54 123.24)">m</text><text class="cls-5" transform="translate(364.66 123.24)">eli</text><text class="cls-5" transform="translate(372.32 123.24)">n</text><text class="cls-5" transform="translate(376.87 123.24)">e</text><text class="cls-4" transform="translate(438.51 33.12)">FE App</text><path class="cls-3" d="M428.1,38.9h49.2a1.9,1.9,0,0,1,1.9,1.9V67.6a1.9,1.9,0,0,1-1.9,1.9H428a1.9,1.9,0,0,1-1.9-1.9V40.8A2,2,0,0,1,428.1,38.9Z"/><text class="cls-5" transform="translate(443.73 53.43)">W</text><text class="cls-5" transform="translate(450.8 53.43)">o</text><text class="cls-5" transform="translate(455.01 53.43)">r</text><text class="cls-5" transform="translate(457.65 53.43)">k</text><text class="cls-5" transform="translate(437.02 61.47)">S</text><text class="cls-5" transform="translate(441.15 61.47)">c</text><text class="cls-5" transform="translate(444.87 61.47)">h</text><text class="cls-5" transform="translate(449.42 61.47)">edule</text><path class="cls-2" d="M417.7,85.7h70a2.9,2.9,0,0,1,2.9,2.9v52a2.9,2.9,0,0,1-2.9,2.9h-70a2.9,2.9,0,0,1-2.9-2.9v-52A2.9,2.9,0,0,1,417.7,85.7Z"/><text class="cls-4" transform="translate(430.61 96.95)">D</text><text class="cls-4" transform="translate(436.93 96.95)">e</text><text class="cls-4" transform="translate(441.59 96.95)">aler App</text><path class="cls-3" d="M428.1,104.7h49.2a1.9,1.9,0,0,1,1.9,1.9v26.8a1.9,1.9,0,0,1-1.9,1.9H428a1.9,1.9,0,0,1-1.9-1.9V106.6A1.92,1.92,0,0,1,428.1,104.7Z"/><text class="cls-5" transform="translate(433.47 119.22)">Mobile App</text><text class="cls-5" transform="translate(440.36 127.26)">T</text><text class="cls-5" transform="translate(444.12 127.26)">r</text><text class="cls-5" transform="translate(446.75 127.26)">a</text><text class="cls-5" transform="translate(450.72 127.26)">c</text><text class="cls-5" transform="translate(454.44 127.26)">k</text><text class="cls-5" transform="translate(458.33 127.26)">er</text><path class="cls-2" d="M2.9,3H137a2.9,2.9,0,0,1,2.9,2.9V80.6a2.9,2.9,0,0,1-2.9,2.9H2.9A2.9,2.9,0,0,1,0,80.6V5.9A2.9,2.9,0,0,1,2.9,3Z"/><path class="cls-3" d="M12.7,18H62a1.9,1.9,0,0,1,1.9,1.9V43.8A1.9,1.9,0,0,1,62,45.7H12.7a1.9,1.9,0,0,1-1.9-1.9V19.9A1.78,1.78,0,0,1,12.7,18Z"/><text class="cls-5" transform="translate(27.37 29.62)">A</text><text class="cls-5" transform="translate(32.15 29.62)">sset</text><text class="cls-5" transform="translate(14.35 37.66)">Man</text><text class="cls-5" transform="translate(29.24 37.66)">a</text><text class="cls-5" transform="translate(33.2 37.66)">ge</text><text class="cls-5" transform="translate(41.85 37.66)">m</text><text class="cls-5" transform="translate(48.97 37.66)">en</text><text class="cls-5" transform="translate(57.54 37.66)">t</text><path class="cls-3" d="M77.9,18h49.3a1.9,1.9,0,0,1,1.9,1.9V43.8a1.9,1.9,0,0,1-1.9,1.9H77.9A1.9,1.9,0,0,1,76,43.8V19.9A1.84,1.84,0,0,1,77.9,18Z"/><text class="cls-5" transform="translate(85.8 30.05)">I</text><text class="cls-5" transform="translate(87.83 30.05)">n</text><text class="cls-5" transform="translate(92.3 30.05)">v</text><text class="cls-5" transform="translate(95.84 30.05)">en</text><text class="cls-5" transform="translate(104.43 30.05)">t</text><text class="cls-5" transform="translate(107.02 30.05)">o</text><text class="cls-5" transform="translate(111.22 30.05)">r</text><text class="cls-5" transform="translate(114.01 30.05)">y</text><text class="cls-5" transform="translate(79.62 37.68)">Man</text><text class="cls-5" transform="translate(94.51 37.68)">a</text><text class="cls-5" transform="translate(98.47 37.68)">ge</text><text class="cls-5" transform="translate(107.12 37.68)">m</text><text class="cls-5" transform="translate(114.24 37.68)">ent</text><text class="cls-6" transform="translate(38.04 12.73)">I</text><text class="cls-6" transform="translate(40.22 12.73)">n</text><text class="cls-6" transform="translate(44.93 12.73)">v</text><text class="cls-6" transform="translate(48.75 12.73)">en</text><text class="cls-6" transform="translate(57.82 12.73)">t</text><text class="cls-6" transform="translate(60.6 12.73)">o</text><text class="cls-6" transform="translate(65.06 12.73)">r</text><text class="cls-6" transform="translate(68.04 12.73)">y Module</text><path class="cls-3" d="M12.7,48.3H62a1.9,1.9,0,0,1,1.9,1.9V74.1A1.9,1.9,0,0,1,62,76H12.7a1.9,1.9,0,0,1-1.9-1.9V50.2A1.78,1.78,0,0,1,12.7,48.3Z"/><path class="cls-3" d="M77.9,48.3h49.3a1.9,1.9,0,0,1,1.9,1.9V74.1a1.9,1.9,0,0,1-1.9,1.9H77.9A1.9,1.9,0,0,1,76,74.1V50.2A1.84,1.84,0,0,1,77.9,48.3Z"/><text class="cls-5" transform="translate(13.82 60.33)">C</text><text class="cls-5" transform="translate(18.49 60.33)">onﬁgu</text><text class="cls-5" transform="translate(40.95 60.33)">r</text><text class="cls-5" transform="translate(43.57 60.33)">ation</text><text class="cls-5" transform="translate(14.15 68.37)">Man</text><text class="cls-5" transform="translate(29.04 68.37)">a</text><text class="cls-5" transform="translate(33 68.37)">ge</text><text class="cls-5" transform="translate(41.65 68.37)">m</text><text class="cls-5" transform="translate(48.77 68.37)">en</text><text class="cls-5" transform="translate(57.33 68.37)">t</text><text class="cls-5" transform="translate(60.12 68.37)">.</text><text class="cls-5" transform="translate(95.46 60.33)">P</text><text class="cls-5" transform="translate(100.17 60.33)">a</text><text class="cls-5" transform="translate(104.13 60.33)">r</text><text class="cls-5" transform="translate(106.92 60.33)">t</text><text class="cls-5" transform="translate(81.44 68.37)">V</text><text class="cls-5" transform="translate(86.01 68.37)">isualisation</text><path class="cls-2" d="M2.9,145.5H137a2.9,2.9,0,0,1,2.9,2.9v45.2a2.9,2.9,0,0,1-2.9,2.9H2.9A2.9,2.9,0,0,1,0,193.6V148.4A2.9,2.9,0,0,1,2.9,145.5Z"/><path class="cls-3" d="M76.9,160.4h49.3a1.9,1.9,0,0,1,1.9,1.9h0v23.9a1.9,1.9,0,0,1-1.9,1.9H76.9a1.9,1.9,0,0,1-1.9-1.9V162.3A1.9,1.9,0,0,1,76.9,160.4Z"/><path class="cls-3" d="M11.7,160.4H61a1.9,1.9,0,0,1,1.9,1.9h0v23.9a1.9,1.9,0,0,1-1.9,1.9H11.7a1.9,1.9,0,0,1-1.9-1.9V162.3A2,2,0,0,1,11.7,160.4Z"/><text class="cls-4" transform="translate(27.45 154.75)">V</text><text class="cls-4" transform="translate(32.62 154.75)">e</text><text class="cls-4" transform="translate(37.39 154.75)">n</text><text class="cls-4" transform="translate(42.67 154.75)">dor Man</text><text class="cls-4" transform="translate(75.42 154.75)">a</text><text class="cls-4" transform="translate(80.1 154.75)">ge</text><text class="cls-4" transform="translate(90.18 154.75)">m</text><text class="cls-4" transform="translate(98.29 154.75)">en</text><text class="cls-4" transform="translate(108.22 154.75)">t</text><text class="cls-5" transform="translate(16.77 177.55)">W</text><text class="cls-5" transform="translate(23.85 177.55)">o</text><text class="cls-5" transform="translate(28.05 177.55)">r</text><text class="cls-5" transform="translate(30.69 177.55)">k O</text><text class="cls-5" transform="translate(42.1 177.55)">r</text><text class="cls-5" transform="translate(44.71 177.55)">der</text><text class="cls-5" transform="translate(95.09 173.53)">S</text><text class="cls-5" transform="translate(99.22 173.53)">L</text><text class="cls-5" transform="translate(103.18 173.53)">A</text><text class="cls-5" transform="translate(89.2 181.57)">T</text><text class="cls-5" transform="translate(92.96 181.57)">r</text><text class="cls-5" transform="translate(95.59 181.57)">a</text><text class="cls-5" transform="translate(99.55 181.57)">c</text><text class="cls-5" transform="translate(103.28 181.57)">k</text><text class="cls-5" transform="translate(107.16 181.57)">er</text><path class="cls-2" d="M2.9,89H137a2.9,2.9,0,0,1,2.9,2.9v45.2A2.9,2.9,0,0,1,137,140H2.9A2.9,2.9,0,0,1,0,137.1V91.9A2.9,2.9,0,0,1,2.9,89Z"/><path class="cls-3" d="M12.7,104H62a1.9,1.9,0,0,1,1.9,1.9v23.9a1.9,1.9,0,0,1-1.9,1.9H12.7a1.9,1.9,0,0,1-1.9-1.9V105.9A1.78,1.78,0,0,1,12.7,104Z"/><path class="cls-3" d="M77.9,104h49.3a1.9,1.9,0,0,1,1.9,1.9v23.9a1.9,1.9,0,0,1-1.9,1.9H77.9a1.9,1.9,0,0,1-1.9-1.9V105.9A1.84,1.84,0,0,1,77.9,104Z"/><text class="cls-5" transform="translate(87.74 117.07)">Mess</text><text class="cls-5" transform="translate(104.74 117.07)">a</text><text class="cls-5" transform="translate(108.7 117.07)">ge</text><text class="cls-5" transform="translate(85.53 125.12)">S</text><text class="cls-5" transform="translate(89.65 125.12)">c</text><text class="cls-5" transform="translate(93.38 125.12)">h</text><text class="cls-5" transform="translate(97.93 125.12)">eduler</text><text class="cls-5" transform="translate(17.42 121.09)">Notiﬁcation</text><text class="cls-6" transform="translate(28.86 97.79)">Mess</text><text class="cls-6" transform="translate(46.9 97.79)">a</text><text class="cls-6" transform="translate(51.11 97.79)">ge Man</text><text class="cls-6" transform="translate(77.82 97.79)">a</text><text class="cls-6" transform="translate(82.03 97.79)">ge</text><text class="cls-6" transform="translate(91.17 97.79)">m</text><text class="cls-6" transform="translate(98.61 97.79)">ent</text></svg>