<?xml version="1.0" encoding="utf-8"?>
<!-- Generator: Adobe Illustrator 24.1.0, SVG Export Plug-In . SVG Version: 6.00 Build 0)  -->
<svg version="1.1" id="Layer_1" xmlns="http://www.w3.org/2000/svg" xmlns:xlink="http://www.w3.org/1999/xlink" x="0px" y="0px"
	 viewBox="0 0 1197.4 613.5" style="enable-background:new 0 0 1197.4 613.5;" xml:space="preserve">
<style type="text/css">
	.st0{fill:#FFFFFF;}
	.st1{font-family:'Montserrat-Bold';}
	.st2{font-size:37.41px;}
	.st3{fill:#67BB50;}
	.st4{fill:#2F3273;}
	.st5{font-family:'Montserrat-BoldItalic';}
	.st6{font-size:14px;}
	.st7{font-family:'Montserrat-Medium';}
	.st8{fill:none;stroke:#FFFFFF;stroke-width:3;stroke-miterlimit:10;}
	.st9{fill-rule:evenodd;clip-rule:evenodd;fill:#FFFFFF;}
	.st10{fill:#FFCC45;}
	.st11{font-family:'Montserrat-SemiBold';}
</style>
<text transform="matrix(1 0 0 1 87.7 69.43)" class="st0 st1 st2">Solution Stack</text>
<polygon class="st3" points="40.3,61.4 48.9,70.1 69.3,70.1 69.3,49.8 60.7,41.1 40.3,41.1 "/>
<polygon class="st4" points="43.1,60.2 50,67.2 66.4,67.2 66.4,50.9 59.5,43.8 43.1,43.8 "/>
<polygon class="st0" points="49.2,56.8 58.1,56.8 58.1,59.1 46.1,59.1 46.1,46.9 58.3,46.9 61.3,49.9 49.2,49.9 "/>
<polygon class="st0" points="60.4,54.5 51.5,54.5 51.5,52.1 63.5,52.1 63.5,64.4 51.2,64.4 48.2,61.3 60.4,61.3 "/>
<text transform="matrix(1 0 0 1 904.38 482.46)" class="st3 st5 st6">SMART SD Automation</text>
<text transform="matrix(1 0 0 1 904.27 503.28)" class="st0 st7 st6">Designed to shift operators </text>
<text transform="matrix(1 0 0 1 904.27 520.08)" class="st0 st7 st6">to self help and to move into</text>
<text transform="matrix(1 0 0 1 1098.7139 520.08)" class="st0 st7 st6"> </text>
<text transform="matrix(1 0 0 1 904.27 536.88)" class="st0 st7 st6">predictive maintenance for</text>
<text transform="matrix(1 0 0 1 1097.0341 536.88)" class="st0 st7 st6"> </text>
<text transform="matrix(1 0 0 1 904.27 553.68)" class="st0 st7 st6">better system uptime</text>
<line class="st8" x1="191.3" y1="552.2" x2="282.4" y2="552.2"/>
<path class="st3" d="M302.3,256.3h558c11,0,20,9,20,20v279.6c0,11-9,20-20,20h-558c-11,0-20-9-20-20V276.3
	C282.3,265.2,291.2,256.3,302.3,256.3z"/>
<path class="st0" d="M80.9,289.2c0,1.3-1.7,2.2-4,2.2s-4-1-4-2.2c-3.3,0.3-5.9,3.1-5.9,6.5c0,3,2.2,3.5,5.1,3.5v-0.3
	c0.7-0.7,1-1.6,1.1-2.5l0.6-0.6c0.3-0.3,0.6-0.5,1-0.3c0.2,0,0.3,0,0.5,0.2c0.2-0.5,0.7-0.8,1.3-0.8h1c0.5,0,1,0.3,1.3,0.8h0.5
	c0.4,0,0.7,0.1,1,0.3l0.6,0.6c0,0.9,0.4,1.8,1,2.5v0.5c2.8,0,5.1-0.5,5.1-3.5C86.8,292.6,84.3,289.7,80.9,289.2"/>
<path class="st0" d="M71.6,284.8h0.8c0.6,2.9,2.5,4.9,4.8,4.9s3.6-1.7,4.4-4.1c0.4-0.2,0.7-0.6,0.9-1l0,0c0.7-0.1,1.2-0.7,1.3-1.4
	v-1.3c-0.1-0.7-0.6-1.3-1.3-1.4v-0.2c-0.2-3-2.8-5.3-5.9-5.1c-2.7,0.2-4.8,2.4-5.1,5.1v0.2c-0.6,0.2-1.1,0.8-1.1,1.4v1.1
	c-0.2,0.7,0.3,1.5,1,1.7l0,0L71.6,284.8 M77,276.4c2.1,0,3.9,1.4,4.3,3.5c-1.2-2.3-4-3.3-6.3-2.1h-0.1c-0.9,0.5-1.6,1.2-2.1,2.1
	C73,277.7,74.9,276.2,77,276.4 M73.4,283.8c0,0-0.5-2.9,0.6-3.3c1,0.4,2,0.7,3,0.8c1.1,0,2.1-0.3,3-0.8c1,0.5,0.5,3.3,0.5,3.3
	c0.2-0.2,0.4-0.3,0.6-0.3v0.2c0,0.3,0,0.7-0.2,1c-0.9,0.7-2,1.1-3.2,1.1c-0.1-0.1-0.3-0.2-0.5-0.2h-1c-0.3,0-0.8,0.3-0.8,0.6
	s0.3,0.8,0.6,0.8h1c0.2,0,0.4,0,0.5-0.2c0.9-0.1,1.8-0.3,2.7-0.6c-0.5,1.6-1.9,2.7-3.6,2.8c-2.2,0-4-2.4-4.3-5.5
	C72.7,283.4,73.1,283.5,73.4,283.8"/>
<path class="st0" d="M80.6,298.6l-0.6-0.1c0-0.2-0.2-0.3-0.2-0.5l0.3-0.5c0.1-0.1,0.1-0.3,0-0.4l0,0l0,0l-0.6-0.6
	c-0.1-0.1-0.2-0.1-0.3-0.2c-0.2,0-0.2,0-0.2,0.2l-0.5,0.3c-0.1-0.1-0.3-0.2-0.5-0.2l-0.2-0.6c0-0.2-0.2-0.3-0.3-0.3h-1
	c-0.2,0-0.3,0.2-0.3,0.3l-0.2,0.6c-0.2,0-0.3,0.2-0.5,0.2l-0.5-0.3c-0.1,0-0.2-0.1-0.2-0.2l0,0l0,0c-0.2,0-0.2,0-0.3,0.2l-0.6,0.6
	c-0.1,0.1-0.1,0.3,0,0.4l0,0l0.3,0.5c-0.1,0.1-0.2,0.3-0.2,0.5l-0.6,0.1c-0.2,0-0.3,0.2-0.3,0.3v1c0,0.2,0.1,0.3,0.3,0.3l0.6,0.2
	c0,0.1,0.2,0.3,0.2,0.5l-0.3,0.5c-0.1,0.1-0.1,0.3,0,0.4l0,0l0.6,0.6c0.1,0.1,0.2,0.1,0.3,0.1H75l0.5-0.3l0.5,0.2l0.2,0.6
	c0,0.2,0.2,0.3,0.3,0.3h1c0.2,0,0.3-0.2,0.3-0.3l0.2-0.6l0.5-0.2l0.5,0.3h0.2c0.2,0,0.2,0,0.3-0.1l0.6-0.6c0.1-0.1,0.1-0.3,0-0.4
	l0,0l0,0l-0.3-0.5c0.1-0.1,0.2-0.3,0.2-0.5l0.6-0.2c0.2,0,0.3-0.2,0.3-0.3v-1C80.9,298.7,80.8,298.6,80.6,298.6 M77,300.9
	c-0.9,0-1.6-0.7-1.6-1.6s0.7-1.6,1.6-1.6s1.6,0.7,1.6,1.6l0,0c0.1,0.8-0.5,1.5-1.4,1.6H77"/>
<path class="st0" d="M180.8,302.3c-0.5,0-0.9-0.4-0.9-1v-3c-2.8,0-5-2.2-5.1-4.9l0,0l0,0v-8.2c0-2.8,2.3-5,5.1-5.1h12
	c2.8,0,5,2.3,5.1,5.1v8.1c0,2.8-2.2,5-4.9,5.1h-4.9l-5.7,3.8C181.1,302.1,180.9,302.3,180.8,302.3 M179.7,282.1c-1.7,0-3,1.3-3,3
	l0,0v8.1c0.1,1.6,1.4,2.9,3,3h1c0.5,0,0.9,0.4,0.9,1l0,0v2.2l4.4-3c0.1-0.1,0.3-0.2,0.5-0.2h5.1c1.6-0.1,2.9-1.4,3-3v-8.1
	c-0.1-1.6-1.4-2.9-3-3H179.7z"/>
<path class="st0" d="M185.7,293.2c-0.5,0-1-0.5-0.9-1l0,0v-6c0-0.6,0.3-1.1,0.9-1.1s1.1,0.3,1.1,1v6.3
	C186.7,292.9,186.2,293.3,185.7,293.2"/>
<path class="st0" d="M189.8,291.2c-0.5,0-1-0.4-1-1v-2.1c0-0.6,0.4-1,1-1c0.5,0,0.9,0.4,0.9,0.9c0,0,0,0,0,0.1l0,0v2.1
	C190.7,290.7,190.3,291.1,189.8,291.2L189.8,291.2"/>
<path class="st0" d="M181.8,291.2c-0.5,0-0.9-0.4-0.9-1l0,0v-2.1c0.2-0.5,0.7-0.8,1.3-0.6c0.3,0.1,0.5,0.3,0.6,0.6l0,0v2.1
	C182.7,290.8,182.2,291.2,181.8,291.2L181.8,291.2"/>
<path class="st9" d="M122.3,182h11.2c1,0,1.9,0.7,1.9,1.8l0,0l0,0v0.1l0,0v23.4c0,1-0.9,1.9-1.9,1.9h-11.2c-1,0-1.9-0.7-1.9-1.8l0,0
	l0,0V184C120.4,182.9,121.3,182.1,122.3,182L122.3,182 M128,206.2c0.5,0,0.9,0.4,0.9,0.9l0,0c0,0.5-0.4,1-0.9,1c-0.5,0-1-0.3-1-0.8
	c0,0,0,0,0-0.1l0,0C126.8,206.6,127.3,206.3,128,206.2L128,206.2 M126.8,184.5h2.5c0.1,0,0.3-0.1,0.3-0.2c0-0.1-0.1-0.3-0.2-0.3
	h-0.1h-2.5c-0.2,0-0.3,0.1-0.3,0.3C126.5,184.4,126.6,184.5,126.8,184.5 M121.5,186.2h12.7v19.3h-12.7V186.2z"/>
<path class="st9" d="M274.8,111.4c0.5-0.1,1,0.3,1.1,0.9v0.1l0,0v6.1c0.1,0.5-0.3,1-0.9,1.1h-0.1h-4.4v1.8h1.8
	c0.4,0,0.6,0.3,0.6,0.7l0,0v0.7H267V122c0-0.4,0.3-0.6,0.6-0.7h1.8v-1.8h-4.2c-0.5,0.1-1-0.3-1.1-0.9v-0.1l0,0v-0.1l0,0v-5.9
	c0-0.6,0.4-1,0.9-1.1h0.1H274.8L274.8,111.4z M265.4,112.5h9.4v5.9h-9.4V112.5z"/>
<path class="st9" d="M300.8,145c-5.2,0-9.4-4.3-9.3-9.4c0-5.2,4.3-9.4,9.4-9.3c5.2,0,9.4,4.3,9.3,9.4c0,5.1-4.2,9.3-9.3,9.3H300.8
	 M300.8,146.1c-5.8,0-10.5-4.7-10.5-10.5s4.7-10.5,10.5-10.5s10.5,4.7,10.5,10.5l0,0c0.1,5.7-4.5,10.5-10.3,10.5l0,0H300.8"/>
<path class="st9" d="M270,142.1c-2.7,0-4.8-2.2-4.8-4.8s2.2-4.7,4.8-4.6l0,0l0,0c2.6,0,4.7,2,4.8,4.6l0,0
	C274.8,140,272.6,142.1,270,142.1L270,142.1 M270,143.2c-3.3,0-5.9-2.7-5.9-5.9c0-3.3,2.7-5.9,5.9-5.9c3.3,0,5.9,2.7,5.9,5.9l0,0
	l0,0C275.9,140.5,273.3,143.2,270,143.2L270,143.2"/>
<path class="st9" d="M301.4,117.3c-1,0-1.8-0.8-1.8-1.8s0.8-1.8,1.8-1.8s1.8,0.8,1.8,1.8l0,0l0,0
	C303.1,116.4,302.5,117.1,301.4,117.3 M301.4,118.4c-1.7,0.1-3.1-1.2-3.1-2.8s1.2-3.1,2.8-3.1c1.7-0.1,3.1,1.2,3.1,2.8v0.1l0,0
	c0.2,1.5-0.9,2.8-2.4,3l0,0C301.7,118.4,301.5,118.4,301.4,118.4"/>
<path class="st9" d="M279,125c-1,0-1.8-0.8-1.8-1.8s0.8-1.8,1.8-1.8s1.8,0.8,1.8,1.8l0,0C280.7,124.2,279.9,124.9,279,125
	 M279,126.1c-1.6-0.1-2.9-1.4-2.9-3.1l0,0c0-1.6,1.2-2.8,2.8-2.8l0,0h0.3c1.6,0.1,2.9,1.4,2.9,3.1l0,0
	C281.9,124.8,280.6,126,279,126.1L279,126.1"/>
<rect x="269.6" y="123.7" class="st0" width="1.1" height="8.3"/>
<polygon class="st0" points="278.4,125.7 277.5,125 272.2,132.3 273.1,133.1 "/>
<rect x="286.2" y="121.7" transform="matrix(0.5 -0.866 0.866 0.5 32.3712 312.403)" class="st0" width="1.1" height="13"/>
<rect x="275.1" y="136.9" transform="matrix(0.9959 -9.080355e-02 9.080355e-02 0.9959 -11.3123 26.2573)" class="st0" width="15.6" height="1.1"/>
<rect x="280.5" y="118.5" transform="matrix(0.932 -0.3624 0.3624 0.932 -23.4292 113.2139)" class="st0" width="19.1" height="1.1"/>
<rect x="297.5" y="120.2" transform="matrix(7.967864e-02 -0.9968 0.9968 7.967864e-02 156.9347 411.5105)" class="st0" width="7.7" height="1.1"/>
<rect x="287.1" y="146.3" transform="matrix(0.6103 -0.7922 0.7922 0.6103 -2.6573 288.2519)" class="st0" width="9" height="1.1"/>
<rect x="279.5" y="138.2" transform="matrix(0.6284 -0.7779 0.7779 0.6284 -9.5285 272.1415)" class="st0" width="1.1" height="15.6"/>
<path class="st0" d="M300.8,136.9c0.8,0,1.5,0.3,2,0.9c0.2,0.2,0.5,0.2,0.7,0.1s0.2-0.5,0.1-0.7c0,0,0-0.1-0.1-0.1l0,0
	c-1.4-1.4-3.8-1.5-5.2,0l0,0l0,0c-0.2,0.2-0.1,0.5,0.1,0.7c0.2,0.1,0.4,0.1,0.6,0l0,0C299.3,137.2,300.1,136.9,300.8,136.9
	 M300.8,140.1c0.7,0,1.1-0.2,1.1-0.9s-0.2-1.1-0.9-1.1s-1.1,0.2-1.1,0.9v0.2C300.2,139.9,300.4,140.2,300.8,140.1 M300.8,134.2
	c1.3,0,2.6,0.4,3.5,1.3c0.2,0.2,0.5,0.1,0.7-0.1c0.1-0.2,0.1-0.4,0-0.6l0,0c-2.3-2.2-6-2.2-8.4,0c-0.2,0.2-0.1,0.5,0.1,0.7
	c0.2,0.1,0.4,0.1,0.6,0l0,0C298.3,134.8,299.5,134.3,300.8,134.2 M300.8,131.8c1.9,0,3.7,0.7,5.1,2c0.4,0.4,1.3-0.2,0.6-0.6
	c-3.2-3.1-8.2-3.1-11.4,0c-0.2,0.2-0.2,0.5,0,0.6c0.2,0.2,0.5,0.2,0.6,0l0,0l0,0C297.1,132.5,298.9,131.8,300.8,131.8"/>
<path class="st0" d="M52.3,479c-3.7,0-6.6-3-6.6-6.7s3-6.6,6.7-6.6c3.6,0,6.6,3,6.6,6.6l0,0C59,476,56,479,52.3,479L52.3,479
	L52.3,479"/>
<path class="st0" d="M62.2,496.2c-0.2,0-0.6-0.2-0.6-0.4l-0.8-4c0-0.1-0.1-0.2-0.2-0.2l0,0l0,0c-0.1,0-0.2,0.1-0.2,0.2l0,0l-0.2,3.8
	c0,0.3-0.2,0.6-0.5,0.6l0,0H44.5c-0.3,0-0.6-0.2-0.6-0.5v-0.1l0,0l-0.2-3.8c0-0.1-0.1-0.2-0.2-0.2l0,0l0,0c-0.1,0-0.2,0.1-0.2,0.2
	l0,0l-0.8,4c0,0.2-0.4,0.6-0.6,0.4h-2c-0.3,0-0.6-0.2-0.6-0.5v-8.2c0-3.6,2.8-6.5,6.4-6.6h11.9c3.6-0.1,6.5,2.8,6.6,6.4l0,0l0,0v8
	c0,0.3-0.2,0.6-0.5,0.6h-0.1L62.2,496.2z M48.5,482.4L48.5,482.4 M48.5,482.6l2.2,8c0,0.1,0.1,0.2,0.2,0.2l0,0l0,0
	c0.1,0,0.2-0.1,0.2-0.2l0,0l0,0l0,0l0.4-8v-0.2L48.5,482.6z M53.3,482.4L53.3,482.4l0.4,8.2c0,0.1,0.1,0.2,0.2,0.2l0,0l0,0
	c0.1,0,0.2-0.1,0.2-0.2l0,0l0,0l0,0l2.2-8v-0.2H53.3z"/>
<path class="st0" d="M669.4,148.3c-6,0-12.1-1.1-15.1-3.2v6.4c0,1.9,5.9,4.3,15.1,4.3s15.1-2.6,15.1-4.3v-6.4
	C681.3,147.2,675.3,148.3,669.4,148.3 M681.7,152.4c-1.1,0-2.1-0.9-2.1-2.1c0-1.1,0.9-2.1,2.1-2.1c1.1,0,2.1,0.9,2.1,2.1l0,0
	C683.8,151.5,682.8,152.4,681.7,152.4L681.7,152.4L681.7,152.4"/>
<path class="st0" d="M669.4,157.9c-6,0-12.1-1.1-15.1-3.2v5.7c0,1.9,5.9,4.3,15.1,4.3s15.1-2.6,15.1-4.3v-5.7
	C681.3,156.8,675.3,157.9,669.4,157.9 M681.7,161.7c-1.1,0-2.1-0.9-2.1-2.1c0-1.1,0.9-2.1,2.1-2.1c1.1,0,2.1,0.9,2.1,2.1l0,0
	C683.8,160.8,682.8,161.7,681.7,161.7L681.7,161.7L681.7,161.7"/>
<path class="st0" d="M681.7,158.9c0.4,0,0.8,0.3,0.8,0.7l0,0c0,0.4-0.3,0.8-0.7,0.8s-0.8-0.3-0.8-0.7c0-0.1,0-0.1,0-0.2l0,0
	C681.1,159.3,681.3,158.9,681.7,158.9"/>
<path class="st0" d="M669.4,137c9.3,0,15.1-2.6,15.1-4.4s-5.9-4.3-15.1-4.3s-15.1,2.6-15.1,4.3S660.1,137,669.4,137"/>
<path class="st0" d="M681.7,149.6c0.4,0,0.8,0.3,0.8,0.8c0,0.4-0.3,0.8-0.8,0.8c-0.4,0-0.8-0.3-0.8-0.8l0,0l0,0
	C681.1,150,681.3,149.6,681.7,149.6"/>
<path class="st0" d="M681.7,140.7c0.4,0,0.8,0.3,0.8,0.8c0,0.4-0.3,0.8-0.8,0.8c-0.4,0-0.8-0.3-0.8-0.8l0,0l0,0
	C681.1,140.9,681.3,140.7,681.7,140.7"/>
<path class="st0" d="M669.4,139c-6,0-12.1-1.1-15.1-3.2v6.1c0,1.7,5.9,4.4,15.1,4.4s15.1-2.6,15.1-4.4v-6.1
	C681.3,137.9,675.3,139,669.4,139 M681.7,143.3c-1.1,0-2.1-0.9-2.1-2.1c0-1.1,0.9-2.1,2.1-2.1c1.1,0,2.1,0.9,2.1,2.1l0,0
	C683.8,142.4,682.8,143.3,681.7,143.3L681.7,143.3L681.7,143.3"/>
<path class="st0" d="M946,334.9c-2.1-0.1-3.7-1.7-4-3.7v-36c0-2,1.6-3.7,3.7-3.7h22.2c2.1-0.1,3.9,1.6,4,3.7l0,0v36
	c-0.1,2.1-1.9,3.8-4,3.7H946z M946,292.5c-1.3,0-2.4,1.1-2.4,2.4l0,0v36c0,1.3,1.1,2.4,2.4,2.4l0,0h21.9c1.3,0,2.4-1.1,2.4-2.4l0,0
	v-36c0-1.3-1.1-2.4-2.4-2.4l0,0H946z"/>
<path class="st0" d="M955.8,295.4c-0.5,0-0.8-0.3-0.8-0.5s0.3-0.8,0.5-0.8h2.7c0.5,0,0.8,0.5,0.5,0.8l0,0c0,0.3-0.3,0.5-0.5,0.5
	H955.8z"/>
<path class="st0" d="M957.2,331.7c-0.6,0-1-0.5-1.1-1.1c0-0.5,0.3-0.9,0.8-1.1l0,0c0.6,0,1,0.5,1.1,1.1
	C958,331.1,957.7,331.5,957.2,331.7"/>
<path class="st0" d="M946.3,327.9c-0.4,0.1-0.7-0.2-0.8-0.6l0,0v-29.8c0-0.4,0.2-0.8,0.6-0.8l0,0h21.8c0.4,0,0.8,0.4,0.8,0.8v29.6
	c0,0.4-0.2,0.7-0.6,0.8H946.3z M951.1,319.7C950.8,319.7,950.8,319.9,951.1,319.7L951.1,319.7l-0.3,5.6c0,0.1,0.1,0.3,0.3,0.3l0,0
	h16c0.1,0,0.2-0.1,0.3-0.2l0,0c0,0,0,0,0-0.1l0,0V320c0-0.1-0.1-0.3-0.3-0.3H951.1L951.1,319.7z M955.6,316.5L955.6,316.5l-0.3,1.6
	c0,0.1,0.1,0.3,0.3,0.3h11.5c0.1,0,0.2-0.1,0.3-0.2l0,0 M967.3,318.1L967.3,318.1v-1.6c0-0.1-0.1-0.3-0.3-0.3h-11.5L967.3,318.1z
	 M947.1,301.8L947.1,301.8l-0.3,10.1c0,0.1,0.1,0.3,0.3,0.3l0,0h20c0.1,0,0.2-0.1,0.3-0.2c0,0,0,0,0-0.1l0,0V302
	c0-0.1-0.1-0.3-0.3-0.3L947.1,301.8L947.1,301.8z M947.1,298.6L947.1,298.6l-0.3,1.6c0,0.1,0.1,0.3,0.3,0.3l0,0h11.4
	c0.1,0,0.2-0.1,0.3-0.2v-0.1l0,0v-1.3c0-0.1-0.1-0.3-0.3-0.3l0,0H947.1L947.1,298.6z"/>
<rect x="948.4" y="303.4" class="st0" width="3.7" height="1.6"/>
<rect x="948.4" y="305.8" class="st0" width="3.7" height="1.6"/>
<path class="st0" d="M1062.9,292.3c-4.5,1.9-7.2,6.4-6.9,11.2h18.7c0.2-4.8-2.5-9.2-6.9-11.2
	C1066.2,291.7,1064.5,291.7,1062.9,292.3z"/>
<path class="st0" d="M1064.3,284.8h2.4c1.3,0,2.4,1.1,2.4,2.4v9.6c0,1.3-1.1,2.4-2.4,2.4l0,0h-2.4c-1.3,0-2.4-1.1-2.4-2.4l0,0v-9.6
	C1061.9,285.9,1063,284.8,1064.3,284.8L1064.3,284.8z"/>
<path class="st0" d="M1065.3,318.4c5.3,0,9.6-4.3,9.6-9.5l0,0l0,0v-2.5H1056v2.4C1055.9,314,1060.1,318.3,1065.3,318.4L1065.3,318.4
	"/>
<path class="st0" d="M1074.7,316.3c-4,5.1-11.4,6.1-16.5,2.1l0,0c-0.8-0.6-1.6-1.3-2.1-2.1c-5.1,0.7-8.8,5.3-8.3,10.4l0,0v0.3
	l1.1,8.3h33.3l1.1-8.3c0.7-5.1-2.9-9.9-8-10.7L1074.7,316.3"/>
<path class="st10" d="M1064.3,297.1h2.4c0.6,0,1-0.5,1.1-1.1l0,0v-7.2c0-0.6-0.5-1-1.1-1.1h-2.4c-0.5,0-1.3,0.5-1.3,1.1l0,0v7.2
	C1063.2,296.6,1063.7,297,1064.3,297.1"/>
<polygon class="st10" points="1076.8,305.6 1053.6,305.6 1053.6,303.5 1056.6,303.5 1076.8,303.5 "/>
<line class="st8" x1="419.7" y1="290.8" x2="464.3" y2="290.8"/>
<line class="st8" x1="322" y1="150.1" x2="645.8" y2="150.1"/>
<line class="st8" x1="322" y1="221.9" x2="464.3" y2="221.9"/>
<line class="st8" x1="464.3" y1="150.1" x2="464.3" y2="534.3"/>
<path class="st3" d="M467.8,150.3c0,2-1.6,3.6-3.6,3.6s-3.6-1.6-3.6-3.6s1.6-3.6,3.6-3.6S467.8,148.3,467.8,150.3L467.8,150.3
	L467.8,150.3"/>
<path class="st3" d="M467.8,221.9c0,2-1.6,3.6-3.6,3.6s-3.6-1.6-3.6-3.6s1.6-3.6,3.6-3.6l0,0l0,0
	C466.2,218.3,467.8,219.8,467.8,221.9L467.8,221.9"/>
<path class="st4" d="M467.8,290.8c0,2-1.6,3.6-3.6,3.6s-3.6-1.6-3.6-3.6s1.6-3.6,3.6-3.6C466.2,287.2,467.8,288.8,467.8,290.8
	L467.8,290.8"/>
<path class="st4" d="M467.8,357c0,2-1.6,3.6-3.6,3.6s-3.6-1.6-3.6-3.6s1.6-3.6,3.6-3.6S467.8,355,467.8,357L467.8,357L467.8,357"/>
<path class="st4" d="M467.8,448.4c0,2-1.6,3.6-3.6,3.6s-3.6-1.6-3.6-3.6s1.6-3.6,3.6-3.6l0,0C466.2,444.9,467.8,446.5,467.8,448.4"
	/>
<path class="st4" d="M467.8,532.7c0,2-1.6,3.6-3.6,3.6s-3.6-1.6-3.6-3.6s1.6-3.6,3.6-3.6l0,0C466.2,529.1,467.8,530.7,467.8,532.7
	L467.8,532.7"/>
<text transform="matrix(1 0 0 1 321.6 141.01)" class="st0 st11 st6">IoT edge device raise alert</text>
<text transform="matrix(1 0 0 1 321.71 195.53)" class="st0 st11 st6">Post to</text>
<text transform="matrix(1 0 0 1 371.4796 195.53)" class="st0 st11 st6"> </text>
<text transform="matrix(1 0 0 1 321.71 212.33)" class="st3 st5 st6">SMART SD</text>
<text transform="matrix(1 0 0 1 317.5148 294.4398)" class="st0 st7 st6">Service Desk</text>
<text transform="matrix(1 0 0 1 487.96 290.16)" class="st0 st7 st6">Files reported and</text>
<text transform="matrix(1 0 0 1 614.7986 290.16)" class="st0 st7 st6"> </text>
<text transform="matrix(1 0 0 1 487.96 306.96)" class="st0 st7 st6">starts ticket</text>
<text transform="matrix(1 0 0 1 487.96 344.76)" class="st0 st7 st6">Issues service order </text>
<text transform="matrix(1 0 0 1 487.96 361.56)" class="st0 st7 st6">and assigns field</text>
<text transform="matrix(1 0 0 1 607.4902 361.56)" class="st0 st7 st6"> </text>
<text transform="matrix(1 0 0 1 487.96 378.36)" class="st0 st7 st6">engineer</text>
<text transform="matrix(1 0 0 1 487.96 444.36)" class="st0 st7 st6">Seeks confirmation </text>
<text transform="matrix(1 0 0 1 487.96 461.16)" class="st0 st7 st6">to close ticket</text>
<text transform="matrix(1 0 0 1 487.96 532.76)" class="st0 st1 st6">TAT</text>
<text transform="matrix(1 0 0 1 513.7481 532.76)" class="st0 st1 st6"> </text>
<text transform="matrix(1 0 0 1 515.01 532.76)" class="st0 st7 st6"> / </text>
<text transform="matrix(1 0 0 1 527.4698 532.76)" class="st0 st1 st6"> </text>
<text transform="matrix(1 0 0 1 527.47 532.76)" class="st0 st1 st6">RTO</text>
<text transform="matrix(1 0 0 1 557.5278 532.76)" class="st0 st1 st6"> </text>
<text transform="matrix(1 0 0 1 561.71 532.76)" class="st0 st7 st6">measured</text>
<text transform="matrix(1 0 0 1 633.4591 532.76)" class="st0 st1 st6"> </text>
<text transform="matrix(1 0 0 1 487.96 549.56)" class="st0 st7 st6">against SLA</text>
<text transform="matrix(1 0 0 1 697.82 153.74)" class="st3 st5 st6">Alerts from BOS/HOS</text>
<text transform="matrix(1 0 0 1 745.51 379.36)" class="st0 st7 st6">Spares order </text>
<text transform="matrix(1 0 0 1 745.51 396.16)" class="st0 st7 st6">management</text>
<text transform="matrix(1 0 0 1 843.5929 396.16)" class="st0 st7 st6"> </text>
<text transform="matrix(1 0 0 1 745.51 412.96)" class="st0 st7 st6">tied to service</text>
<text transform="matrix(1 0 0 1 845.0068 412.96)" class="st0 st7 st6"> </text>
<text transform="matrix(1 0 0 1 745.51 429.76)" class="st0 st7 st6">order</text>
<line class="st8" x1="656.6" y1="449.6" x2="682" y2="449.6"/>
<line class="st8" x1="681.4" y1="397.6" x2="726.5" y2="397.6"/>
<line class="st8" x1="656.6" y1="344.9" x2="682" y2="344.9"/>
<line class="st8" x1="682" y1="344.3" x2="682" y2="450.3"/>
<line class="st8" x1="641.7" y1="328.4" x2="641.7" y2="314.2"/>
<line class="st8" x1="641.4" y1="314.2" x2="919.3" y2="314.2"/>
<text transform="matrix(1 0 0 1 982.6 318.73)" class="st0 st1 st6">FE App</text>
<text transform="matrix(1 0 0 1 1091.47 310.33)" class="st0 st1 st6">Field</text>
<text transform="matrix(1 0 0 1 1126.5255 310.33)" class="st0 st1 st6"> </text>
<text transform="matrix(1 0 0 1 1091.47 327.13)" class="st0 st1 st6">Engineer</text>
<text transform="matrix(1 0 0 1 191.72 567.16)" class="st3 st5 st6">Stream</text>
<text transform="matrix(1 0 0 1 77.52 489.11)" class="st0 st1 st6">Client</text>
<text transform="matrix(1 0 0 1 145.2 482.94)" class="st0 st7 st6">Command Centre</text>
<text transform="matrix(1 0 0 1 268.6931 482.94)" class="st0 st7 st6"> </text>
<text transform="matrix(1 0 0 1 145.2 499.74)" class="st0 st7 st6">Dashboard</text>
<text transform="matrix(1 0 0 1 146.71 202.11)" class="st3 st5 st6">Operator App</text>
<text transform="matrix(1 0 0 1 93.25 294.61)" class="st3 st5 st6">Operator</text>
<text transform="matrix(1 0 0 1 202.25 294.61)" class="st3 st5 st6">Voice</text>
<line class="st8" x1="260.1" y1="290.7" x2="304.7" y2="290.7"/>
</svg>
