<svg id="Layer_1" data-name="Layer 1"
	xmlns="http://www.w3.org/2000/svg" viewBox="0 0 1197.39 613.48">
	<defs>
		<style>.cls-1{font-size:37.41px;}.cls-1,.cls-13,.cls-27,.cls-29,.cls-36,.cls-6{fill:#fff;}.cls-1,.cls-36{font-family:Montserrat-Bold, Montserrat;}.cls-1,.cls-32,.cls-36,.cls-7{font-weight:700;}.cls-2{letter-spacing:0.01em;}.cls-3{letter-spacing:0em;}.cls-32,.cls-4,.cls-7{fill:#67bb50;}.cls-5{fill:#2f3273;}.cls-13,.cls-29,.cls-36,.cls-7{font-size:14px;}.cls-32,.cls-7{font-family:Montserrat-BoldItalic, Montserrat;font-style:italic;}.cls-8{letter-spacing:-0.01em;}.cls-9{letter-spacing:-0.01em;}.cls-10{letter-spacing:-0.02em;}.cls-11,.cls-43{letter-spacing:0em;}.cls-12{letter-spacing:0.01em;}.cls-13,.cls-38,.cls-39,.cls-40,.cls-41,.cls-42,.cls-43{font-family:Montserrat-Medium, Montserrat;font-weight:500;}.cls-14{letter-spacing:0em;}.cls-15{letter-spacing:-0.02em;}.cls-16{letter-spacing:-0.01em;}.cls-17{letter-spacing:0em;}.cls-18,.cls-40{letter-spacing:0em;}.cls-19,.cls-41{letter-spacing:-0.01em;}.cls-20,.cls-39{letter-spacing:0em;}.cls-21,.cls-42{letter-spacing:-0.01em;}.cls-22{letter-spacing:0.01em;}.cls-23{letter-spacing:-0.01em;}.cls-24{letter-spacing:-0.01em;}.cls-25{letter-spacing:-0.01em;}.cls-26{fill:none;stroke:#fff;stroke-miterlimit:10;stroke-width:3px;}.cls-27{fill-rule:evenodd;}.cls-28{fill:#ffcc45;}.cls-29{font-family:Montserrat-SemiBold, Montserrat;font-weight:600;}.cls-30{letter-spacing:-0.07em;}.cls-31{letter-spacing:0.01em;}.cls-33{letter-spacing:-0.01em;}.cls-34{letter-spacing:-0.02em;}.cls-35{letter-spacing:-0.02em;}.cls-37{letter-spacing:-0.03em;}.cls-44{letter-spacing:0.08em;}.cls-45{letter-spacing:-0.01em;}.cls-46{letter-spacing:0em;}.cls-47{letter-spacing:-0.01em;}.cls-48{letter-spacing:0.01em;}.cls-49{letter-spacing:0em;}.cls-50{letter-spacing:-0.02em;}.cls-51{letter-spacing:-0.06em;}</style>
	</defs>
	<text class="cls-1" transform="translate(87.7 69.43)">Solution St
		<tspan class="cls-2" x="213.96" y="0">a</tspan>
		<tspan class="cls-3" x="237.27" y="0">c</tspan>
		<tspan x="259.23" y="0">k</tspan>
	</text>
	<polygon class="cls-4" points="40.29 61.44 48.92 70.06 69.29 70.06 69.29 49.83 60.65 41.07 40.29 41.07 40.29 61.44"/>
	<polygon class="cls-5" points="43.12 60.23 50.05 67.16 66.43 67.16 66.43 50.9 59.48 43.85 43.12 43.85 43.12 60.23"/>
	<polygon class="cls-6" points="49.2 56.77 58.07 56.77 58.07 59.14 46.1 59.14 46.1 46.89 58.31 46.89 61.33 49.93 49.2 49.93 49.2 56.77"/>
	<polygon class="cls-6" points="60.36 54.47 51.48 54.47 51.48 52.07 63.49 52.07 63.49 64.38 51.22 64.38 48.19 61.34 60.36 61.34 60.36 54.47"/>
	<text class="cls-7" transform="translate(904.38 482.46)">SMA
		<tspan class="cls-8" x="33.03" y="0">R</tspan>
		<tspan x="43.18" y="0">T SD </tspan>
		<tspan class="cls-9" x="80.25" y="0">A</tspan>
		<tspan x="90.83" y="0">u</tspan>
		<tspan class="cls-10" x="100.45" y="0">t</tspan>
		<tspan class="cls-11" x="106.3" y="0">o</tspan>
		<tspan class="cls-12" x="115.46" y="0">m</tspan>
		<tspan class="cls-11" x="130.23" y="0">ation</tspan>
	</text>
	<text class="cls-13" transform="translate(904.27 503.28)">Desig
		<tspan class="cls-14" x="40.71" y="0">n</tspan>
		<tspan class="cls-11" x="50.29" y="0">ed </tspan>
		<tspan class="cls-15" x="72.17" y="0">t</tspan>
		<tspan x="77.71" y="0">o shift ope</tspan>
		<tspan class="cls-16" x="152.33" y="0">r</tspan>
		<tspan x="157.96" y="0">a</tspan>
		<tspan class="cls-15" x="166.33" y="0">t</tspan>
		<tspan x="171.88" y="0">o</tspan>
		<tspan class="cls-17" x="180.77" y="0">r</tspan>
		<tspan x="186.46" y="0">s</tspan>
		<tspan class="cls-15" x="0" y="16.8">t</tspan>
		<tspan x="5.54" y="16.8">o self </tspan>
		<tspan class="cls-14" x="46.4" y="16.8">h</tspan>
		<tspan class="cls-11" x="55.97" y="16.8">elp a</tspan>
		<tspan class="cls-18" x="90.13" y="16.8">n</tspan>
		<tspan x="99.71" y="16.8">d </tspan>
		<tspan class="cls-15" x="113.02" y="16.8">t</tspan>
		<tspan x="118.56" y="16.8">o </tspan>
		<tspan class="cls-14" x="131.22" y="16.8">m</tspan>
		<tspan class="cls-19" x="146.06" y="16.8">ov</tspan>
		<tspan x="162.36" y="16.8">e in</tspan>
		<tspan class="cls-15" x="188.13" y="16.8">t</tspan>
		<tspan class="cls-20" x="193.67" y="16.8">o</tspan>
		<tspan x="0" y="33.6">p</tspan>
		<tspan class="cls-21" x="9.55" y="33.6">r</tspan>
		<tspan class="cls-11" x="15.12" y="33.6">edi</tspan>
		<tspan class="cls-22" x="37.14" y="33.6">c</tspan>
		<tspan x="45.23" y="33.6">ti</tspan>
		<tspan class="cls-19" x="54.94" y="33.6">v</tspan>
		<tspan class="cls-11" x="62.55" y="33.6">e main</tspan>
		<tspan class="cls-15" x="111.49" y="33.6">t</tspan>
		<tspan x="117.04" y="33.6">ena</tspan>
		<tspan class="cls-18" x="143.51" y="33.6">n</tspan>
		<tspan class="cls-23" x="153.09" y="33.6">c</tspan>
		<tspan x="160.97" y="33.6">e </tspan>
		<tspan class="cls-16" x="173.3" y="33.6">f</tspan>
		<tspan x="178.13" y="33.6">or</tspan>
		<tspan x="0" y="50.4">be</tspan>
		<tspan class="cls-24" x="18.12" y="50.4">t</tspan>
		<tspan class="cls-15" x="23.73" y="50.4">t</tspan>
		<tspan x="29.27" y="50.4">er </tspan>
		<tspan class="cls-9" x="47.35" y="50.4">s</tspan>
		<tspan class="cls-25" x="54.22" y="50.4">y</tspan>
		<tspan x="61.95" y="50.4">s</tspan>
		<tspan class="cls-15" x="68.96" y="50.4">t</tspan>
		<tspan x="74.51" y="50.4">em upti</tspan>
		<tspan class="cls-18" x="130.37" y="50.4">m</tspan>
		<tspan x="145.21" y="50.4">e</tspan>
	</text>
	<line class="cls-26" x1="191.29" y1="552.18" x2="282.37" y2="552.18"/>
	<rect class="cls-4" x="282.29" y="256.27" width="598" height="319.59" rx="20"/>
	<path class="cls-6" d="M80.93,289.22c0,1.27-1.74,2.22-4,2.22s-4-.95-4-2.22a6.54,6.54,0,0,0-5.86,6.49c0,3,2.22,3.49,5.07,3.49v-.32a4.12,4.12,0,0,0,1.11-2.53l.63-.64c.32-.31.63-.47,1-.31a.63.63,0,0,1,.47.16,1.3,1.3,0,0,1,1.27-.8h1a1.61,1.61,0,0,1,1.27.8h.47a2.27,2.27,0,0,1,1,.31l.63.64A3.73,3.73,0,0,0,82,299v.47c2.85,0,5.07-.47,5.07-3.48a7.43,7.43,0,0,0-6.18-6.81"/>
	<path class="cls-6" d="M71.59,284.79h.76c.64,2.85,2.54,4.91,4.75,4.91s3.64-1.74,4.44-4.12a2.55,2.55,0,0,0,.95-.95h0a1.57,1.57,0,0,0,1.26-1.42v-1.27a1.57,1.57,0,0,0-1.26-1.42v-.16a5.5,5.5,0,0,0-5.86-5.07,5.6,5.6,0,0,0-5.07,5.07v.16a1.58,1.58,0,0,0-1.11,1.42v1.11a1.4,1.4,0,0,0,1,1.71h.13m5.38-8.39a4.26,4.26,0,0,1,4.28,3.48,4.75,4.75,0,0,0-6.33-2.12h-.11a5.11,5.11,0,0,0-2.06,2.06A4,4,0,0,1,77,276.31m-3.64,7.44s-.47-2.85.63-3.33a10.54,10.54,0,0,0,3,.79,6.32,6.32,0,0,0,3-.79c1,.48.48,3.33.48,3.33a1.31,1.31,0,0,1,.63-.32v.16a2,2,0,0,1-.16,1,5.92,5.92,0,0,1-3.17,1.11.63.63,0,0,0-.47-.16h-1c-.32,0-.79.31-.79.63s.31.79.63.79h.9a.57.57,0,0,0,.48-.16,8.12,8.12,0,0,0,2.69-.63A4.1,4.1,0,0,1,76.63,289c-2.22,0-4-2.37-4.28-5.54a1.36,1.36,0,0,1,1,.32"/>
	<path class="cls-6" d="M80.62,298.56l-.64-.15c0-.16-.15-.32-.15-.48l.31-.47a.3.3,0,0,0,0-.43h0l-.63-.63a.52.52,0,0,0-.32-.16c-.16,0-.16,0-.16.16l-.47.31a.68.68,0,0,0-.48-.16l-.15-.63a.36.36,0,0,0-.32-.32h-1a.36.36,0,0,0-.32.32l-.15.63c-.16,0-.32.16-.48.16l-.47-.31a.16.16,0,0,1-.16-.16h0c-.16,0-.16,0-.32.16l-.63.63a.3.3,0,0,0,0,.42h0l.31.47a.56.56,0,0,0-.15.48l-.64.15a.34.34,0,0,0-.31.32v.95a.34.34,0,0,0,.31.32l.64.16c0,.15.15.31.15.47l-.31.48a.3.3,0,0,0,0,.42h0l.63.64a.46.46,0,0,0,.32.15h.16l.47-.31.48.16.15.63a.36.36,0,0,0,.32.32h1a.36.36,0,0,0,.32-.32l.15-.63.48-.16.47.31h.16c.16,0,.16,0,.32-.15l.63-.64a.29.29,0,0,0,0-.42h0l-.31-.48a.55.55,0,0,0,.15-.47l.64-.16a.34.34,0,0,0,.31-.32v-.95a.34.34,0,0,0-.31-.32M77,300.94a1.59,1.59,0,1,1,1.58-1.58,1.48,1.48,0,0,1-1.36,1.58H77"/>
	<path class="cls-6" d="M180.81,302.25a1,1,0,0,1-.95-.95v-3a5,5,0,0,1-5.07-4.94h0v-8.2a5.11,5.11,0,0,1,5.07-5.07h12a5.11,5.11,0,0,1,5.07,5.07v8.07a5,5,0,0,1-4.91,5.07h-4.91l-5.7,3.8c-.31,0-.47.16-.63.16m-1.11-20.11a3,3,0,0,0-3,3h0v8.07a3.17,3.17,0,0,0,3,3h1a1,1,0,0,1,.95.95h0v2.22l4.43-3a.7.7,0,0,1,.48-.16h5.06a3.17,3.17,0,0,0,3-3v-8.07a3.17,3.17,0,0,0-3-3Z"/>
	<path class="cls-6" d="M185.72,293.22a1,1,0,0,1-.95-1h0v-6c0-.64.31-1.11.95-1.11s1.11.32,1.11,1v6.33a1.07,1.07,0,0,1-1.11.79"/>
	<path class="cls-6" d="M189.83,291.17a1,1,0,0,1-1-.95v-2.06a1,1,0,0,1,1-1,.94.94,0,0,1,.94,1h0v2.06a1,1,0,0,1-.95.95h0"/>
	<path class="cls-6" d="M181.76,291.17a1,1,0,0,1-.95-.95h0v-2.06a1,1,0,0,1,1.9,0h0v2.06a1,1,0,0,1-1,.95h0"/>
	<path class="cls-27" d="M122.35,182h11.24a1.83,1.83,0,0,1,1.9,1.77h0v.13h0v23.42a1.93,1.93,0,0,1-1.9,1.9H122.35a1.83,1.83,0,0,1-1.9-1.77h0V184a2,2,0,0,1,1.87-2h0m5.7,24.22a1,1,0,0,1,.95.95h0a1,1,0,0,1-.95,1,.92.92,0,0,1-1-.89h0c-.16-.63.31-.95,1-.95h0m-1.27-21.85h2.53a.24.24,0,1,0,0-.47h-2.53a.35.35,0,0,0-.32.32.5.5,0,0,0,.32.15m-5.22,1.74h12.66v19.26H121.53Z"/>
	<path class="cls-27" d="M274.84,111.39a1,1,0,0,1,1.1,1h0v6.06a1,1,0,0,1-1,1.1h-4.4v1.76h1.76a.69.69,0,0,1,.65.66h0v.66h-5.92v-.66a.69.69,0,0,1,.65-.66h1.76v-1.76h-4.17a1,1,0,0,1-1.1-1h0v-.13h0v-5.93a1,1,0,0,1,1-1.09h9.67Zm-9.44,1.09h9.44v5.93H265.4Z"/>
	<path class="cls-27" d="M300.75,145a9.38,9.38,0,1,1,.13,0h-.13m0,1.1a10.54,10.54,0,1,1,10.54-10.54h0A10.4,10.4,0,0,1,301,146.08h-.27"/>
	<path class="cls-27" d="M270,142.13a4.87,4.87,0,0,1-4.83-4.83,4.69,4.69,0,0,1,4.78-4.61h0a4.83,4.83,0,0,1,4.84,4.61h0a4.88,4.88,0,0,1-4.84,4.83h0m0,1.1a5.93,5.93,0,1,1,5.93-5.93h0a5.89,5.89,0,0,1-5.84,5.93h0"/>
	<path class="cls-27" d="M301.37,117.31a1.76,1.76,0,1,1,1.75-1.75h0c0,.88-.65,1.54-1.75,1.75m0,1.1a3,3,0,1,1,2.85-3.07h0a2.71,2.71,0,0,1-2.35,3h0a2.09,2.09,0,0,1-.5,0"/>
	<path class="cls-27" d="M279,125a1.76,1.76,0,1,1,1.76-1.76h0A1.89,1.89,0,0,1,279,125m0,1.1a3,3,0,0,1-2.85-3.07h0a2.82,2.82,0,0,1,2.81-2.85h.26a3,3,0,0,1,2.86,3.07h0A3.28,3.28,0,0,1,279,126.1h0"/>
	<rect class="cls-6" x="269.57" y="123.68" width="1.1" height="8.34"/>
	<polygon class="cls-6" points="278.35 125.66 277.48 125 272.2 132.25 273.08 133.13 278.35 125.66"/>
	<rect class="cls-6" x="286.16" y="121.71" width="1.1" height="12.96" transform="translate(32.34 312.39) rotate(-60)"/>
	<rect class="cls-6" x="275.07" y="136.86" width="15.59" height="1.1" transform="translate(-11.31 26.25) rotate(-5.21)"/>
	<rect class="cls-6" x="280.5" y="118.45" width="19.11" height="1.1" transform="translate(-23.41 113.22) rotate(-21.25)"/>
	<rect class="cls-6" x="297.46" y="120.18" width="7.71" height="1.1" transform="translate(156.94 411.45) rotate(-85.43)"/>
	<rect class="cls-6" x="287.09" y="146.25" width="9" height="1.1" transform="translate(-2.65 288.21) rotate(-52.39)"/>
	<rect class="cls-6" x="279.55" y="138.2" width="1.1" height="15.59" transform="translate(-9.48 272.15) rotate(-51.07)"/>
	<path class="cls-6" d="M300.75,136.86a2.72,2.72,0,0,1,2,.88.47.47,0,1,0,.66-.66h0a3.71,3.71,0,0,0-5.25,0h0a.47.47,0,0,0,.66.66h0a2.7,2.7,0,0,1,2-.88m0,3.29c.66,0,1.1-.22,1.1-.88s-.22-1.09-.88-1.09-1.09.22-1.09.88v.21c.22.66.44.88.87.88m0-5.93a5.08,5.08,0,0,1,3.52,1.32.47.47,0,0,0,.66-.66h0a6.11,6.11,0,0,0-8.35,0,.47.47,0,0,0,.66.66h0a6.27,6.27,0,0,1,3.51-1.32m0-2.41a7.46,7.46,0,0,1,5.06,2c.43.44,1.31-.21.65-.65a8.21,8.21,0,0,0-11.42,0,.46.46,0,0,0,0,.65.45.45,0,0,0,.66,0h0a7.45,7.45,0,0,1,5-2"/>
	<path class="cls-6" d="M52.33,479A6.62,6.62,0,1,1,59,472.35h0A6.65,6.65,0,0,1,52.33,479h0"/>
	<path class="cls-6" d="M62.16,496.21c-.2,0-.6-.2-.6-.4l-.81-4a.2.2,0,0,0-.2-.2h0a.22.22,0,0,0-.2.2h0l-.2,3.81a.53.53,0,0,1-.47.6H44.51a.54.54,0,0,1-.6-.46v-.14h0l-.2-3.81a.2.2,0,0,0-.2-.2h0a.21.21,0,0,0-.2.2h0l-.81,4c0,.2-.4.6-.6.4h-2a.55.55,0,0,1-.61-.46v-8.16A6.53,6.53,0,0,1,45.67,481H57.54a6.49,6.49,0,0,1,6.62,6.37h0v8a.54.54,0,0,1-.47.6h-.13ZM48.52,482.37h0m0,.2,2.21,8a.2.2,0,0,0,.2.2h0a.18.18,0,0,0,.2-.16v0h0l.4-8v-.2Zm4.81-.2h0l.4,8.23a.2.2,0,0,0,.2.2h0a.18.18,0,0,0,.2-.16s0,0,0,0h0l2.21-8v-.2Z"/>
	<path class="cls-6" d="M669.41,148.3c-6,0-12.09-1.14-15.12-3.22v6.43c0,1.89,5.86,4.34,15.12,4.34s15.12-2.64,15.12-4.34v-6.43c-3.22,2.08-9.26,3.22-15.12,3.22m12.28,4.15a2.08,2.08,0,1,1,2.08-2.08h0a2.08,2.08,0,0,1-2.08,2.08h0"/>
	<path class="cls-6" d="M669.41,157.93c-6,0-12.09-1.13-15.12-3.21v5.67c0,1.89,5.86,4.34,15.12,4.34s15.12-2.64,15.12-4.34v-5.67c-3.22,2.08-9.26,3.21-15.12,3.21m12.28,3.78a2.08,2.08,0,1,1,2.08-2.08h0a2.08,2.08,0,0,1-2.08,2.08h0"/>
	<path class="cls-6" d="M681.65,158.88a.75.75,0,0,1,.76.75.76.76,0,1,1-1.51,0h0c.19-.38.38-.75.75-.75"/>
	<path class="cls-6" d="M669.41,137c9.26,0,15.12-2.65,15.12-4.35s-5.86-4.34-15.12-4.34-15.12,2.64-15.12,4.34,5.86,4.35,15.12,4.35"/>
	<path class="cls-6" d="M681.65,149.62a.76.76,0,1,1-.75.75h0c.19-.37.38-.75.75-.75"/>
	<path class="cls-6" d="M681.65,140.74a.76.76,0,1,1-.75.75h0c.19-.56.38-.75.75-.75"/>
	<path class="cls-6" d="M669.41,139c-6,0-12.09-1.14-15.12-3.22v6.05c0,1.7,5.86,4.35,15.12,4.35s15.12-2.65,15.12-4.35v-6.05c-3.22,2.08-9.26,3.22-15.12,3.22m12.28,4.34a2.08,2.08,0,1,1,2.08-2.08h0a2.08,2.08,0,0,1-2.08,2.08h0"/>
	<path class="cls-6" d="M946,334.87a4.26,4.26,0,0,1-4-3.73v-36a3.71,3.71,0,0,1,3.68-3.73h22.19a3.87,3.87,0,0,1,4,3.73h0v36a3.87,3.87,0,0,1-4,3.73H946Zm0-42.39a2.4,2.4,0,0,0-2.4,2.4v36a2.4,2.4,0,0,0,2.4,2.4h21.87a2.4,2.4,0,0,0,2.4-2.4v-36a2.4,2.4,0,0,0-2.4-2.4Z"/>
	<path class="cls-6" d="M955.83,295.41c-.53,0-.8-.27-.8-.53s.27-.8.54-.8h2.66c.54,0,.8.53.54.8h0a.59.59,0,0,1-.54.53Z"/>
	<path class="cls-6" d="M957.22,331.67a1.14,1.14,0,0,1-1.07-1.06,1.21,1.21,0,0,1,.8-1.07h0a1.15,1.15,0,0,1,1.07,1.07,1.2,1.2,0,0,1-.8,1.06"/>
	<path class="cls-6" d="M946.29,327.94a.71.71,0,0,1-.8-.61V297.54a.72.72,0,0,1,.63-.8h21.77a.86.86,0,0,1,.8.8v29.6a.73.73,0,0,1-.63.8H946.29Zm4.8-8.27c-.27,0-.27.27,0,0h0l-.27,5.6a.27.27,0,0,0,.27.27h16a.23.23,0,0,0,.26-.21.06.06,0,0,0,0-.06h0v-5.33a.27.27,0,0,0-.26-.27h-16Zm4.53-3.19h0l-.27,1.6a.27.27,0,0,0,.27.26h11.47a.23.23,0,0,0,.26-.21,0,0,0,0,0,0-.05h0v-1.6a.27.27,0,0,0-.26-.27H955.62Zm-8.53-14.67h0l-.27,10.13a.27.27,0,0,0,.27.27h20a.24.24,0,0,0,.26-.21.06.06,0,0,0,0-.06h0v-9.86a.27.27,0,0,0-.26-.27h-20Zm0-3.2h0l-.27,1.6a.27.27,0,0,0,.27.27H958.5a.25.25,0,0,0,.27-.21v-.06h0v-1.33a.27.27,0,0,0-.27-.27H947.09Z"/>
	<rect class="cls-6" x="948.42" y="303.41" width="3.73" height="1.6"/>
	<rect class="cls-6" x="948.42" y="305.81" width="3.73" height="1.6"/>
	<path class="cls-6" d="M1062.94,292.28a11.35,11.35,0,0,0-6.93,11.2h18.67a11.7,11.7,0,0,0-6.94-11.2A7.31,7.31,0,0,0,1062.94,292.28Z"/>
	<path class="cls-6" d="M1064.28,284.81h2.4a2.41,2.41,0,0,1,2.4,2.4v9.6a2.4,2.4,0,0,1-2.4,2.4h-2.4a2.39,2.39,0,0,1-2.4-2.4v-9.6A2.4,2.4,0,0,1,1064.28,284.81Z"/>
	<path class="cls-6" d="M1065.34,318.41a9.57,9.57,0,0,0,9.6-9.55h0v-2.45H1056v2.4a9.49,9.49,0,0,0,9.33,9.6h0"/>
	<path class="cls-6" d="M1074.68,316.28a11.86,11.86,0,0,1-16.54,2.13h0a8,8,0,0,1-2.13-2.13,9.52,9.52,0,0,0-8.26,10.39h0v.27l1.06,8.27h33.33l1.07-8.27a9.51,9.51,0,0,0-8-10.66h-.53"/>
	<path class="cls-28" d="M1064.28,297.08h2.4a1.1,1.1,0,0,0,1.06-1.07h0v-7.2a1.14,1.14,0,0,0-1.06-1.07h-2.4c-.54,0-1.34.54-1.34,1.07h0V296a1.81,1.81,0,0,0,1.34,1.07"/>
	<polygon class="cls-28" points="1076.81 305.61 1053.61 305.61 1053.61 303.48 1056.55 303.48 1076.81 303.48 1076.81 305.61"/>
	<line class="cls-26" x1="419.71" y1="290.77" x2="464.3" y2="290.77"/>
	<line class="cls-26" x1="322.04" y1="150.06" x2="645.81" y2="150.06"/>
	<line class="cls-26" x1="322.04" y1="221.86" x2="464.3" y2="221.86"/>
	<line class="cls-26" x1="464.3" y1="150.06" x2="464.3" y2="534.26"/>
	<path class="cls-4" d="M467.83,150.29a3.57,3.57,0,1,1-3.57-3.57,3.57,3.57,0,0,1,3.57,3.57h0"/>
	<path class="cls-4" d="M467.83,221.86a3.57,3.57,0,1,1-3.57-3.56h0a3.53,3.53,0,0,1,3.57,3.47h0"/>
	<path class="cls-5" d="M467.83,290.77a3.57,3.57,0,1,1-3.57-3.57,3.65,3.65,0,0,1,3.57,3.57h0"/>
	<path class="cls-5" d="M467.83,357a3.57,3.57,0,1,1-3.57-3.57,3.57,3.57,0,0,1,3.57,3.57h0"/>
	<path class="cls-5" d="M467.83,448.41a3.57,3.57,0,1,1-3.57-3.57h0a3.67,3.67,0,0,1,3.57,3.57"/>
	<path class="cls-5" d="M467.83,532.7a3.57,3.57,0,1,1-3.57-3.57h0a3.53,3.53,0,0,1,3.57,3.48h0"/>
	<text class="cls-29" transform="translate(321.6 141.01)">I
		<tspan class="cls-30" x="4.47" y="0">o</tspan>
		<tspan x="12.45" y="0">T edge d</tspan>
		<tspan class="cls-8" x="74.97" y="0">e</tspan>
		<tspan x="83.54" y="0">vi</tspan>
		<tspan class="cls-16" x="95.67" y="0">c</tspan>
		<tspan x="103.7" y="0">e </tspan>
		<tspan class="cls-16" x="116.27" y="0">r</tspan>
		<tspan class="cls-20" x="122.04" y="0">aises sta</tspan>
		<tspan class="cls-31" x="183.22" y="0">r</tspan>
		<tspan x="189.31" y="0">t</tspan>
	</text>
	<text class="cls-29" transform="translate(321.71 195.53)">
		<tspan class="cls-21">P</tspan>
		<tspan x="10" y="0">ost </tspan>
		<tspan class="cls-15" x="36.04" y="0">t</tspan>
		<tspan x="41.72" y="0">o</tspan>
		<tspan class="cls-32">
			<tspan x="0" y="16.8">SMA</tspan>
			<tspan class="cls-8" x="33.03" y="16.8">R</tspan>
			<tspan x="43.18" y="16.8">T SD</tspan>
		</tspan>
	</text>
	<text class="cls-13" transform="translate(321.6 294.44)">
		<tspan class="cls-33">C</tspan>
		<tspan x="10.02" y="0">all </tspan>
		<tspan class="cls-23" x="29.97" y="0">c</tspan>
		<tspan class="cls-11" x="37.86" y="0">ent</tspan>
		<tspan class="cls-21" x="61.75" y="0">r</tspan>
		<tspan class="cls-11" x="67.33" y="0">e</tspan>
	</text>
	<text class="cls-13" transform="translate(487.96 290.16)">
		<tspan class="cls-8">F</tspan>
		<tspan x="8.75" y="0">iles </tspan>
		<tspan class="cls-21" x="35.91" y="0">r</tspan>
		<tspan x="41.48" y="0">epo</tspan>
		<tspan class="cls-31" x="68.49" y="0">r</tspan>
		<tspan class="cls-15" x="74.44" y="0">t</tspan>
		<tspan class="cls-11" x="79.98" y="0">ed a</tspan>
		<tspan class="cls-14" x="110.23" y="0">n</tspan>
		<tspan x="119.81" y="0">d</tspan>
		<tspan x="0" y="16.8">sta</tspan>
		<tspan class="cls-31" x="21.18" y="16.8">r</tspan>
		<tspan x="27.13" y="16.8">ts ti</tspan>
		<tspan class="cls-33" x="53.41" y="16.8">c</tspan>
		<tspan class="cls-34" x="61.3" y="16.8">k</tspan>
		<tspan x="69.62" y="16.8">et</tspan>
	</text>
	<text class="cls-13" transform="translate(487.96 344.76)">Issues se
		<tspan class="cls-31" x="62.78" y="0">r</tspan>
		<tspan x="68.73" y="0">vi</tspan>
		<tspan class="cls-23" x="80.46" y="0">c</tspan>
		<tspan x="88.34" y="0">e o</tspan>
		<tspan class="cls-21" x="109.56" y="0">r</tspan>
		<tspan x="115.13" y="0">der</tspan>
		<tspan x="0" y="16.8">a</tspan>
		<tspan class="cls-14" x="8.37" y="16.8">n</tspan>
		<tspan x="17.95" y="16.8">d assigns field</tspan>
		<tspan x="0" y="33.6">e</tspan>
		<tspan class="cls-18" x="8.57" y="33.6">n</tspan>
		<tspan x="18.14" y="33.6">gi</tspan>
		<tspan class="cls-18" x="31.71" y="33.6">n</tspan>
		<tspan x="41.29" y="33.6">eer</tspan>
	</text>
	<text class="cls-13" transform="translate(487.96 444.36)">See
		<tspan class="cls-35" x="25.83" y="0">k</tspan>
		<tspan x="34.22" y="0">s </tspan>
		<tspan class="cls-16" x="45" y="0">c</tspan>
		<tspan class="cls-20" x="52.88" y="0">onfi</tspan>
		<tspan class="cls-25" x="81.27" y="0">r</tspan>
		<tspan x="86.91" y="0">mation</tspan>
		<tspan class="cls-15" x="0" y="16.8">t</tspan>
		<tspan x="5.54" y="16.8">o </tspan>
		<tspan class="cls-25" x="18.2" y="16.8">c</tspan>
		<tspan x="26.1" y="16.8">lose ti</tspan>
		<tspan class="cls-33" x="67.94" y="16.8">c</tspan>
		<tspan class="cls-34" x="75.84" y="16.8">k</tspan>
		<tspan x="84.15" y="16.8">et</tspan>
	</text>
	<text class="cls-36" transform="translate(487.96 532.76)">
		<tspan class="cls-37">TA</tspan>
		<tspan x="18.4" y="0">T</tspan>
		<tspan class="cls-38" x="27.05" y="0" xml:space="preserve"> / </tspan>
		<tspan class="cls-8" x="39.51" y="0">RT</tspan>
		<tspan x="58.17" y="0">O</tspan>
		<tspan class="cls-39" x="69.99" y="0"></tspan>
		<tspan class="cls-40" x="73.75" y="0">m</tspan>
		<tspan class="cls-41" x="88.59" y="0">e</tspan>
		<tspan class="cls-38" x="96.95" y="0">asu</tspan>
		<tspan class="cls-42" x="121.81" y="0">r</tspan>
		<tspan class="cls-43" x="127.38" y="0">ed</tspan>
		<tspan class="cls-38">
			<tspan class="cls-14" x="0" y="16.8">a</tspan>
			<tspan class="cls-11" x="8.41" y="16.8">gainst S</tspan>
			<tspan class="cls-18" x="65.15" y="16.8">L</tspan>
			<tspan x="73.51" y="16.8">A</tspan>
		</tspan>
	</text>
	<text class="cls-7" transform="translate(697.82 153.74)">Ale
		<tspan class="cls-31" x="23.73" y="0">r</tspan>
		<tspan x="29.97" y="0">ts </tspan>
		<tspan class="cls-44" x="47.46" y="0">f</tspan>
		<tspan class="cls-45" x="54" y="0">r</tspan>
		<tspan x="59.91" y="0">om BOS/HOS</tspan>
	</text>
	<text class="cls-13" transform="translate(745.51 379.36)">S
		<tspan class="cls-46" x="8.69" y="0">p</tspan>
		<tspan x="18.17" y="0">a</tspan>
		<tspan class="cls-21" x="26.54" y="0">r</tspan>
		<tspan x="32.12" y="0">es o</tspan>
		<tspan class="cls-21" x="60.35" y="0">r</tspan>
		<tspan x="65.93" y="0">der</tspan>
		<tspan x="0" y="16.8">man</tspan>
		<tspan class="cls-18" x="32.7" y="16.8">a</tspan>
		<tspan x="41.12" y="16.8">ge</tspan>
		<tspan class="cls-18" x="59.35" y="16.8">m</tspan>
		<tspan x="74.19" y="16.8">ent</tspan>
		<tspan x="0" y="33.6">tied </tspan>
		<tspan class="cls-15" x="31.58" y="33.6">t</tspan>
		<tspan x="37.13" y="33.6">o se</tspan>
		<tspan class="cls-31" x="65.37" y="33.6">r</tspan>
		<tspan class="cls-11" x="71.31" y="33.6">vi</tspan>
		<tspan class="cls-23" x="83.05" y="33.6">c</tspan>
		<tspan class="cls-11" x="90.93" y="33.6">e</tspan>
		<tspan x="0" y="50.4">o</tspan>
		<tspan class="cls-21" x="8.89" y="50.4">r</tspan>
		<tspan x="14.46" y="50.4">der</tspan>
	</text>
	<line class="cls-26" x1="656.63" y1="449.63" x2="682.02" y2="449.63"/>
	<line class="cls-26" x1="681.39" y1="397.58" x2="726.45" y2="397.58"/>
	<line class="cls-26" x1="656.63" y1="344.9" x2="682.02" y2="344.9"/>
	<line class="cls-26" x1="682.02" y1="344.27" x2="682.02" y2="450.27"/>
	<line class="cls-26" x1="641.67" y1="328.36" x2="641.67" y2="314.16"/>
	<line class="cls-26" x1="641.37" y1="314.16" x2="919.29" y2="314.16"/>
	<text class="cls-36" transform="translate(982.6 318.73)">FE App</text>
	<text class="cls-36" transform="translate(1091.47 310.33)">
		<tspan class="cls-47">F</tspan>
		<tspan x="8.81" y="0">ield</tspan>
		<tspan x="0" y="16.8">E</tspan>
		<tspan class="cls-48" x="9.39" y="16.8">n</tspan>
		<tspan class="cls-49" x="19.15" y="16.8">gi</tspan>
		<tspan class="cls-48" x="33.17" y="16.8">n</tspan>
		<tspan x="42.92" y="16.8">eer</tspan>
	</text>
	<text class="cls-7" transform="translate(191.72 567.16)">St
		<tspan class="cls-45" x="15.02" y="0">r</tspan>
		<tspan class="cls-20" x="20.93" y="0">eam</tspan>
	</text>
	<text class="cls-36" transform="translate(77.52 489.11)">Client</text>
	<text class="cls-13" transform="translate(145.2 482.94)">
		<tspan class="cls-50">C</tspan>
		<tspan x="9.81" y="0">omma</tspan>
		<tspan class="cls-14" x="56.67" y="0">n</tspan>
		<tspan x="66.25" y="0">d </tspan>
		<tspan class="cls-50" x="79.56" y="0">C</tspan>
		<tspan x="89.38" y="0">ent</tspan>
		<tspan class="cls-21" x="113.27" y="0">r</tspan>
		<tspan x="118.85" y="0">e</tspan>
		<tspan x="0" y="16.8">Dashb</tspan>
		<tspan class="cls-46" x="46.03" y="16.8">o</tspan>
		<tspan x="54.85" y="16.8">a</tspan>
		<tspan class="cls-21" x="63.22" y="16.8">r</tspan>
		<tspan x="68.8" y="16.8">d</tspan>
	</text>
	<text class="cls-7" transform="translate(146.71 202.11)">Ope
		<tspan class="cls-45" x="30.27" y="0">r</tspan>
		<tspan x="36.18" y="0">a</tspan>
		<tspan class="cls-35" x="45.84" y="0">t</tspan>
		<tspan x="51.69" y="0">or App</tspan>
	</text>
	<text class="cls-7" transform="translate(93.25 294.61)">Ope
		<tspan class="cls-45" x="30.27" y="0">r</tspan>
		<tspan x="36.18" y="0">a</tspan>
		<tspan class="cls-35" x="45.84" y="0">t</tspan>
		<tspan x="51.69" y="0">or</tspan>
	</text>
	<text class="cls-7" transform="translate(202.25 294.61)">
		<tspan class="cls-51">V</tspan>
		<tspan x="9.67" y="0">oi</tspan>
		<tspan class="cls-33" x="23.03" y="0">c</tspan>
		<tspan x="31.21" y="0">e</tspan>
	</text>
	<line class="cls-26" x1="260.13" y1="290.66" x2="304.72" y2="290.66"/>
</svg>