<svg id="Layer_1" data-name="Layer 1" xmlns="http://www.w3.org/2000/svg" viewBox="0 0 533.3 302.42"><defs><style>.cls-1,.cls-10,.cls-13,.cls-14,.cls-3,.cls-4,.cls-6,.cls-7,.cls-9{fill:#fff;}.cls-14,.cls-2,.cls-3,.cls-4,.cls-5,.cls-6,.cls-7,.cls-9{isolation:isolate;}.cls-2,.cls-6{font-size:8.96px;}.cls-2,.cls-8{fill:#4ad8ff;}.cls-14,.cls-2,.cls-6,.cls-7{font-family:Montserrat-Bold, Montserrat;font-weight:700;}.cls-3,.cls-4,.cls-7,.cls-9{font-size:7.08px;}.cls-3,.cls-4,.cls-5,.cls-9{font-family:Montserrat-Medium, Montserrat;font-weight:500;}.cls-4{letter-spacing:-0.01em;}.cls-5{font-size:6.93px;fill:#5fcbff;}.cls-9{letter-spacing:-0.03em;}.cls-10{fill-rule:evenodd;}.cls-11{fill:none;stroke-width:0.5px;}.cls-11,.cls-13{stroke:#fff;stroke-miterlimit:10;}.cls-12{fill:#ffcc45;}.cls-14{font-size:20px;}.cls-15{letter-spacing:-0.01em;}.cls-16{letter-spacing:0.01em;}.cls-17{letter-spacing:0em;}</style></defs><path class="cls-1" d="M465.42,143.8a4.26,4.26,0,0,0-2.6,4.2h7a4.39,4.39,0,0,0-2.6-4.2A2.78,2.78,0,0,0,465.42,143.8Z"/><path class="cls-1" d="M465.92,141h.9a.9.9,0,0,1,.9.9v3.6a.9.9,0,0,1-.9.9h-.9a.9.9,0,0,1-.9-.9v-3.6A.9.9,0,0,1,465.92,141Z"/><text class="cls-2" transform="translate(34.77 135.04)">Ope</text><text class="cls-2" transform="translate(54.17 135.04)">r</text><text class="cls-2" transform="translate(57.97 135.04)">a</text><text class="cls-2" transform="translate(63.5 135.04)">t</text><text class="cls-2" transform="translate(67.24 135.04)">or</text><text class="cls-3" transform="translate(36.94 236.7)">Client</text><text class="cls-3" transform="translate(404.89 261.44)">Desig</text><text class="cls-3" transform="translate(425.48 261.44)">n</text><text class="cls-3" transform="translate(430.32 261.44)">ed</text><text class="cls-3" transform="translate(441.39 261.44)">t</text><text class="cls-3" transform="translate(444.19 261.44)">o shift ope</text><text class="cls-3" transform="translate(481.93 261.44)">r</text><text class="cls-3" transform="translate(484.77 261.44)">a</text><text class="cls-3" transform="translate(489.01 261.44)">t</text><text class="cls-3" transform="translate(491.81 261.44)">o</text><text class="cls-3" transform="translate(496.31 261.44)">r</text><text class="cls-3" transform="translate(499.19 261.44)">s</text><text class="cls-3" transform="translate(404.89 269.94)">t</text><text class="cls-3" transform="translate(407.69 269.94)">o self</text><text class="cls-3" transform="translate(428.35 269.94)">h</text><text class="cls-3" transform="translate(433.2 269.94)">elp a</text><text class="cls-3" transform="translate(450.47 269.94)">n</text><text class="cls-3" transform="translate(455.31 269.94)">d</text><text class="cls-3" transform="translate(462.05 269.94)">t</text><text class="cls-3" transform="translate(464.85 269.94)">o</text><text class="cls-3" transform="translate(471.25 269.94)">m</text><text class="cls-4" transform="translate(478.75 269.94)">o</text><text class="cls-3" transform="translate(483.14 269.94)">v</text><text class="cls-3" transform="translate(487 269.94)">e in</text><text class="cls-3" transform="translate(500.03 269.94)">t</text><text class="cls-3" transform="translate(502.83 269.94)">o</text><text class="cls-3" transform="translate(404.89 278.44)">p</text><text class="cls-3" transform="translate(409.72 278.44)">r</text><text class="cls-3" transform="translate(412.54 278.44)">edi</text><text class="cls-3" transform="translate(423.67 278.44)">c</text><text class="cls-3" transform="translate(427.77 278.44)">ti</text><text class="cls-3" transform="translate(432.67 278.44)">v</text><text class="cls-3" transform="translate(436.52 278.44)">e main</text><text class="cls-3" transform="translate(461.27 278.44)">t</text><text class="cls-3" transform="translate(464.08 278.44)">ena</text><text class="cls-3" transform="translate(477.47 278.44)">n</text><text class="cls-3" transform="translate(482.31 278.44)">c</text><text class="cls-3" transform="translate(486.29 278.44)">e</text><text class="cls-3" transform="translate(492.53 278.44)">f</text><text class="cls-3" transform="translate(494.97 278.44)">or</text><text class="cls-3" transform="translate(404.89 286.94)">be</text><text class="cls-3" transform="translate(414.05 286.94)">t</text><text class="cls-3" transform="translate(416.89 286.94)">t</text><text class="cls-3" transform="translate(419.69 286.94)">er</text><text class="cls-3" transform="translate(428.83 286.94)">s</text><text class="cls-3" transform="translate(432.31 286.94)">y</text><text class="cls-3" transform="translate(436.22 286.94)">s</text><text class="cls-3" transform="translate(439.77 286.94)">t</text><text class="cls-3" transform="translate(442.57 286.94)">em upti</text><text class="cls-3" transform="translate(470.82 286.94)">m</text><text class="cls-3" transform="translate(478.32 286.94)">e</text><text class="cls-3" transform="translate(69.86 236.7)">C</text><text class="cls-3" transform="translate(74.82 236.7)">omma</text><text class="cls-3" transform="translate(98.52 236.7)">n</text><text class="cls-3" transform="translate(103.36 236.7)">d</text><text class="cls-3" transform="translate(110.1 236.7)">C</text><text class="cls-3" transform="translate(115.06 236.7)">ent</text><text class="cls-3" transform="translate(127.14 236.7)">r</text><text class="cls-3" transform="translate(129.96 236.7)">e</text><text class="cls-3" transform="translate(69.86 245.19)">Dashb</text><text class="cls-3" transform="translate(93.14 245.19)">o</text><text class="cls-3" transform="translate(97.6 245.19)">a</text><text class="cls-3" transform="translate(101.83 245.19)">r</text><text class="cls-3" transform="translate(104.65 245.19)">d</text><text class="cls-5" transform="translate(76.17 282.28)">St</text><text class="cls-5" transform="translate(83.34 282.28)">r</text><text class="cls-5" transform="translate(86.1 282.28)">e</text><text class="cls-5" transform="translate(90.24 282.28)">ams</text><text class="cls-2" transform="translate(97.14 135.04)">V</text><text class="cls-2" transform="translate(103.33 135.04)">oi</text><text class="cls-2" transform="translate(111.9 135.04)">c</text><text class="cls-2" transform="translate(117.13 135.04)">e</text><text class="cls-2" transform="translate(63.3 88.93)">Ope</text><text class="cls-2" transform="translate(82.7 88.93)">r</text><text class="cls-2" transform="translate(86.5 88.93)">a</text><text class="cls-2" transform="translate(92.03 88.93)">t</text><text class="cls-2" transform="translate(95.77 88.93)">or App</text><text class="cls-6" transform="translate(151.64 88.93)">P</text><text class="cls-6" transform="translate(158.1 88.93)">ost</text><text class="cls-6" transform="translate(175.16 88.93)">t</text><text class="cls-6" transform="translate(178.91 88.93)">o</text><text class="cls-2" transform="translate(151.64 99.69)">SMA</text><text class="cls-2" transform="translate(172.78 99.69)">R</text><text class="cls-2" transform="translate(179.27 99.69)">T SD</text><text class="cls-7" transform="translate(148.76 59.7)">I</text><text class="cls-7" transform="translate(151.08 59.7)">o</text><text class="cls-7" transform="translate(155.25 59.7)">T edge d</text><text class="cls-7" transform="translate(187.32 59.7)">e</text><text class="cls-7" transform="translate(191.72 59.7)">vi</text><text class="cls-7" transform="translate(198.09 59.7)">c</text><text class="cls-7" transform="translate(202.22 59.7)">e</text><text class="cls-7" transform="translate(208.69 59.7)">r</text><text class="cls-7" transform="translate(211.69 59.7)">aises ale</text><text class="cls-7" transform="translate(243.15 59.7)">r</text><text class="cls-7" transform="translate(246.31 59.7)">t</text><text class="cls-2" transform="translate(321.86 73.2)">Ale</text><text class="cls-2" transform="translate(337.07 73.2)">r</text><text class="cls-2" transform="translate(341.07 73.2)">ts</text><text class="cls-2" transform="translate(352.26 73.2)">f</text><text class="cls-2" transform="translate(356.44 73.2)">r</text><text class="cls-2" transform="translate(360.23 73.2)">om BOS/HOS</text><text class="cls-7" transform="translate(422.93 153.6)">FE App</text><text class="cls-2" transform="translate(405.8 251.19)">SMA</text><text class="cls-2" transform="translate(426.94 251.19)">R</text><text class="cls-2" transform="translate(433.43 251.19)">T SD</text><text class="cls-2" transform="translate(457.16 251.19)">A</text><text class="cls-2" transform="translate(463.93 251.19)">u</text><text class="cls-2" transform="translate(470.09 251.19)">t</text><text class="cls-2" transform="translate(473.83 251.19)">omation</text><text class="cls-7" transform="translate(478.01 152.65)">F</text><text class="cls-7" transform="translate(482.46 152.65)">ield</text><text class="cls-7" transform="translate(478.01 161.15)">E</text><text class="cls-7" transform="translate(482.76 161.15)">n</text><text class="cls-7" transform="translate(487.7 161.15)">gi</text><text class="cls-7" transform="translate(494.78 161.15)">n</text><text class="cls-7" transform="translate(499.72 161.15)">eer</text><path class="cls-8" d="M138.62,285.3a9,9,0,0,0,9,9h236a9,9,0,0,0,9-9V119.6a9,9,0,0,0-9-9h-236a9,9,0,0,0-9,9Z"/><text class="cls-3" transform="translate(148.92 135.04)">C</text><text class="cls-3" transform="translate(153.99 135.04)">all</text><text class="cls-3" transform="translate(164.08 135.04)">c</text><text class="cls-3" transform="translate(168.06 135.04)">ent</text><text class="cls-3" transform="translate(180.15 135.04)">r</text><text class="cls-3" transform="translate(182.97 135.04)">e</text><text class="cls-3" transform="translate(221.63 134.14)">F</text><text class="cls-3" transform="translate(226.05 134.14)">iles</text><text class="cls-3" transform="translate(239.79 134.14)">r</text><text class="cls-3" transform="translate(242.61 134.14)">epo</text><text class="cls-3" transform="translate(256.26 134.14)">r</text><text class="cls-3" transform="translate(259.27 134.14)">t a</text><text class="cls-3" transform="translate(268.34 134.14)">n</text><text class="cls-3" transform="translate(273.19 134.14)">d</text><text class="cls-3" transform="translate(221.63 142.64)">sta</text><text class="cls-3" transform="translate(232.34 142.64)">r</text><text class="cls-3" transform="translate(235.35 142.64)">ts ti</text><text class="cls-3" transform="translate(248.64 142.64)">c</text><text class="cls-3" transform="translate(252.63 142.64)">k</text><text class="cls-3" transform="translate(256.84 142.64)">et</text><text class="cls-3" transform="translate(221.63 166.43)">Issues se</text><text class="cls-3" transform="translate(253.38 166.43)">r</text><text class="cls-3" transform="translate(256.39 166.43)">vi</text><text class="cls-3" transform="translate(262.32 166.43)">c</text><text class="cls-3" transform="translate(266.3 166.43)">e</text><text class="cls-3" transform="translate(221.63 174.92)">o</text><text class="cls-3" transform="translate(226.13 174.92)">r</text><text class="cls-3" transform="translate(228.94 174.92)">der a</text><text class="cls-3" transform="translate(247.15 174.92)">n</text><text class="cls-3" transform="translate(251.99 174.92)">d assigns</text><text class="cls-3" transform="translate(221.63 183.42)">ﬁeld e</text><text class="cls-3" transform="translate(244.05 183.42)">n</text><text class="cls-3" transform="translate(248.89 183.42)">gi</text><text class="cls-3" transform="translate(255.75 183.42)">n</text><text class="cls-3" transform="translate(260.59 183.42)">eer</text><text class="cls-3" transform="translate(221.63 207.65)">See</text><text class="cls-3" transform="translate(234.69 207.65)">k</text><text class="cls-3" transform="translate(238.93 207.65)">s</text><text class="cls-3" transform="translate(244.38 207.65)">c</text><text class="cls-3" transform="translate(248.37 207.65)">onﬁ</text><text class="cls-3" transform="translate(262.73 207.65)">r</text><text class="cls-3" transform="translate(265.58 207.65)">mation</text><text class="cls-3" transform="translate(221.63 216.15)">t</text><text class="cls-3" transform="translate(224.43 216.15)">o</text><text class="cls-3" transform="translate(230.83 216.15)">c</text><text class="cls-3" transform="translate(234.83 216.15)">lose ti</text><text class="cls-3" transform="translate(255.99 216.15)">c</text><text class="cls-3" transform="translate(259.98 216.15)">k</text><text class="cls-3" transform="translate(264.19 216.15)">et</text><text class="cls-9" transform="translate(221.63 245.34)">T</text><text class="cls-3" transform="translate(225.54 245.34)">A</text><text class="cls-3" transform="translate(230.47 245.34)">T</text><text class="cls-3" transform="translate(234.49 245.34)">/</text><text class="cls-4" transform="translate(236.98 245.34)">R</text><text class="cls-3" transform="translate(242.06 245.34)">T</text><text class="cls-3" transform="translate(246.14 245.34)">O</text><text class="cls-3" transform="translate(253.99 245.34)">m</text><text class="cls-3" transform="translate(261.5 245.34)">e</text><text class="cls-3" transform="translate(265.72 245.34)">asu</text><text class="cls-3" transform="translate(278.3 245.34)">r</text><text class="cls-3" transform="translate(281.12 245.34)">ed</text><text class="cls-3" transform="translate(221.63 253.84)">a</text><text class="cls-3" transform="translate(225.88 253.84)">gainst S</text><text class="cls-3" transform="translate(254.58 253.84)">L</text><text class="cls-3" transform="translate(258.81 253.84)">A</text><text class="cls-3" transform="translate(320.83 181.75)">S</text><text class="cls-3" transform="translate(325.23 181.75)">p</text><text class="cls-3" transform="translate(330.02 181.75)">a</text><text class="cls-3" transform="translate(334.25 181.75)">r</text><text class="cls-3" transform="translate(337.07 181.75)">es o</text><text class="cls-3" transform="translate(351.35 181.75)">r</text><text class="cls-3" transform="translate(354.17 181.75)">der</text><text class="cls-3" transform="translate(320.83 190.25)">man</text><text class="cls-3" transform="translate(337.37 190.25)">a</text><text class="cls-3" transform="translate(341.62 190.25)">ge</text><text class="cls-3" transform="translate(350.84 190.25)">m</text><text class="cls-3" transform="translate(358.35 190.25)">ent</text><text class="cls-3" transform="translate(320.83 198.75)">tied</text><text class="cls-3" transform="translate(336.8 198.75)">t</text><text class="cls-3" transform="translate(339.61 198.75)">o se</text><text class="cls-3" transform="translate(353.89 198.75)">r</text><text class="cls-3" transform="translate(356.89 198.75)">vi</text><text class="cls-3" transform="translate(362.83 198.75)">c</text><text class="cls-3" transform="translate(366.81 198.75)">e</text><text class="cls-3" transform="translate(320.83 207.25)">o</text><text class="cls-3" transform="translate(325.33 207.25)">r</text><text class="cls-3" transform="translate(328.14 207.25)">der</text><path class="cls-1" d="M29.42,132.8c0,.8-1.1,1.4-2.5,1.4s-2.5-.6-2.5-1.4a4.13,4.13,0,0,0-3.7,4.1c0,1.9,1.4,2.2,3.2,2.2v-.2a2.57,2.57,0,0,0,.7-1.6l.4-.4c.2-.2.4-.3.6-.2a.41.41,0,0,1,.3.1.8.8,0,0,1,.8-.5h.6a1,1,0,0,1,.8.5h.3a1.42,1.42,0,0,1,.6.2l.4.4a2.35,2.35,0,0,0,.7,1.6v.3c1.8,0,3.2-.3,3.2-2.2a4.69,4.69,0,0,0-3.9-4.3"/><path class="cls-1" d="M23.52,130H24c.4,1.8,1.6,3.1,3,3.1s2.3-1.1,2.8-2.6a1.64,1.64,0,0,0,.6-.6h0a1,1,0,0,0,.8-.9v-.8a1,1,0,0,0-.8-.9v-.1a3.47,3.47,0,0,0-3.7-3.2,3.53,3.53,0,0,0-3.2,3.2v.1a1,1,0,0,0-.7.9v.7a.88.88,0,0,0,.62,1.08l.08,0m3.4-5.3a2.69,2.69,0,0,1,2.7,2.2,3,3,0,0,0-4-1.34l-.07,0a3.25,3.25,0,0,0-1.3,1.3,2.55,2.55,0,0,1,2.7-2.2m-2.3,4.7s-.3-1.8.4-2.1a6.67,6.67,0,0,0,1.9.5,4,4,0,0,0,1.9-.5c.6.3.3,2.1.3,2.1a.84.84,0,0,1,.4-.2v.1a1.23,1.23,0,0,1-.1.6,3.69,3.69,0,0,1-2,.7.41.41,0,0,0-.3-.1h-.6c-.2,0-.5.2-.5.4s.2.5.4.5H27a.37.37,0,0,0,.3-.1,5.21,5.21,0,0,0,1.7-.4,2.59,2.59,0,0,1-2.3,1.8c-1.4,0-2.5-1.5-2.7-3.5a.87.87,0,0,1,.6.2"/><path class="cls-1" d="M29.22,138.7l-.4-.1c0-.1-.1-.2-.1-.3l.2-.3a.19.19,0,0,0,0-.27l0,0-.4-.4a.35.35,0,0,0-.2-.1c-.1,0-.1,0-.1.1l-.3.2a.41.41,0,0,0-.3-.1l-.1-.4a.22.22,0,0,0-.2-.2h-.6a.22.22,0,0,0-.2.2l-.1.4c-.1,0-.2.1-.3.1l-.3-.2a.1.1,0,0,1-.1-.1c-.1,0-.1,0-.2.1l-.4.4a.19.19,0,0,0,0,.27l0,0,.2.3a.37.37,0,0,0-.1.3l-.4.1a.22.22,0,0,0-.2.2v.6a.22.22,0,0,0,.2.2l.4.1c0,.1.1.2.1.3l-.2.3a.19.19,0,0,0,0,.27l0,0h0l.4.4a.3.3,0,0,0,.2.1h.1l.3-.2.3.1.1.4a.22.22,0,0,0,.2.2h.6a.22.22,0,0,0,.2-.2l.1-.4.3-.1.3.2h.1c.1,0,.1,0,.2-.1l.4-.4a.19.19,0,0,0,0-.27l0,0-.2-.3a.37.37,0,0,0,.1-.3l.4-.1a.22.22,0,0,0,.2-.2v-.6a.22.22,0,0,0-.2-.2m-2.3,1.5a1,1,0,1,1,1-1,.93.93,0,0,1-.88,1h-.12"/><path class="cls-1" d="M85.52,141.5a.65.65,0,0,1-.6-.6V139a3.16,3.16,0,0,1-3.2-3.12V130.7a3.22,3.22,0,0,1,3.2-3.2h7.6a3.22,3.22,0,0,1,3.2,3.2v5.1A3.15,3.15,0,0,1,92.6,139H89.52l-3.6,2.4c-.2,0-.3.1-.4.1m-.7-12.7a1.9,1.9,0,0,0-1.9,1.9h0v5.1a2,2,0,0,0,1.9,1.9h.6a.65.65,0,0,1,.6.6h0v1.4l2.8-1.9a.41.41,0,0,1,.3-.1h3.2a2,2,0,0,0,1.9-1.9v-5.1a2,2,0,0,0-1.9-1.9Z"/><path class="cls-1" d="M88.62,135.8a.65.65,0,0,1-.6-.6h0v-3.8c0-.4.2-.7.6-.7s.7.2.7.6v4a.68.68,0,0,1-.7.5"/><path class="cls-1" d="M91.22,134.5a.65.65,0,0,1-.6-.6v-1.3a.6.6,0,0,1,1.2,0h0v1.3a.65.65,0,0,1-.6.6h0"/><path class="cls-1" d="M86.12,134.5a.65.65,0,0,1-.6-.6h0v-1.3a.6.6,0,1,1,1.2,0h0v1.3a.65.65,0,0,1-.6.6h0"/><path class="cls-10" d="M48.12,75.8h7.1a1.16,1.16,0,0,1,1.2,1.12V77h0V91.8a1.22,1.22,0,0,1-1.2,1.2h-7.1a1.16,1.16,0,0,1-1.2-1.12V77.1a1.25,1.25,0,0,1,1.18-1.3h0m3.6,15.3a.65.65,0,0,1,.6.6h0a.65.65,0,0,1-.6.6.58.58,0,0,1-.6-.56v0h0c-.1-.4.2-.6.6-.6h0m-.8-13.8h1.6a.15.15,0,1,0,0-.3h-1.6a.22.22,0,0,0-.2.2.3.3,0,0,0,.2.1m-3.3,1.1h8V90.6h-8Z"/><path class="cls-10" d="M125.92,47.6a.47.47,0,0,1,.5.44V50.8a.47.47,0,0,1-.44.5h-2v.8h.8a.32.32,0,0,1,.3.3h0v.3h-2.7v-.3a.32.32,0,0,1,.3-.3h.8v-.8h-1.9a.47.47,0,0,1-.5-.44V50.8h0V48.1a.47.47,0,0,1,.44-.5h4.38Zm-4.3.5h4.3v2.7h-4.3Z"/><path class="cls-10" d="M137.72,62.9a4.27,4.27,0,1,1,.06,0h-.06m0,.5a4.8,4.8,0,1,1,4.8-4.8h0a4.74,4.74,0,0,1-4.68,4.8h-.12"/><path class="cls-10" d="M123.72,61.6a2.22,2.22,0,0,1-2.2-2.2,2.14,2.14,0,0,1,2.18-2.1h0a2.2,2.2,0,0,1,2.2,2.1h0a2.22,2.22,0,0,1-2.2,2.2h0m0,.5a2.7,2.7,0,1,1,2.7-2.7h0a2.68,2.68,0,0,1-2.68,2.7h0"/><path class="cls-10" d="M138,50.3a.8.8,0,1,1,.8-.8h0c0,.4-.3.7-.8.8m0,.5a1.35,1.35,0,1,1,1.3-1.4h0a1.24,1.24,0,0,1-1.07,1.39.87.87,0,0,1-.23,0"/><path class="cls-10" d="M127.82,53.8a.8.8,0,1,1,.8-.8h0a.86.86,0,0,1-.8.8m0,.5a1.35,1.35,0,0,1-1.3-1.4h0a1.29,1.29,0,0,1,1.28-1.3h.12a1.35,1.35,0,0,1,1.3,1.4h0a1.49,1.49,0,0,1-1.4,1.3h0"/><rect class="cls-1" x="123.52" y="53.2" width="0.5" height="3.8"/><polygon class="cls-1" points="127.52 54.1 127.12 53.8 124.72 57.1 125.12 57.5 127.52 54.1"/><rect class="cls-1" x="131.08" y="52.3" width="0.5" height="5.9" transform="translate(17.81 141.36) rotate(-60)"/><rect class="cls-1" x="126.02" y="59.2" width="7.1" height="0.5" transform="translate(-4.86 12.01) rotate(-5.21)"/><rect class="cls-1" x="128.5" y="50.82" width="8.7" height="0.5" transform="translate(-9.48 51.62) rotate(-21.25)"/><rect class="cls-1" x="136.06" y="52.05" width="3.5" height="0.5" transform="matrix(0.08, -1, 1, 0.08, 74.65, 185.48)"/><rect class="cls-1" x="131.5" y="63.48" width="4.1" height="0.5" transform="translate(1.56 130.63) rotate(-52.39)"/><rect class="cls-1" x="128.06" y="59.81" width="0.5" height="7.1" transform="translate(-1.6 123.36) rotate(-51.07)"/><path class="cls-1" d="M137.72,59.2a1.24,1.24,0,0,1,.9.4.21.21,0,0,0,.3-.3h0a1.69,1.69,0,0,0-2.39,0h0a.21.21,0,0,0,.3.3h0a1.24,1.24,0,0,1,.9-.4m0,1.5c.3,0,.5-.1.5-.4s-.1-.5-.4-.5-.5.1-.5.4v.1c.1.3.2.4.4.4m0-2.7a2.29,2.29,0,0,1,1.6.6.21.21,0,1,0,.3-.3h0a2.78,2.78,0,0,0-3.8,0,.21.21,0,1,0,.3.3h0a2.84,2.84,0,0,1,1.6-.6m0-1.1a3.38,3.38,0,0,1,2.3.9c.2.2.6-.1.3-.3a3.74,3.74,0,0,0-5.2,0,.21.21,0,1,0,.3.3,3.38,3.38,0,0,1,2.3-.9"/><path class="cls-1" d="M26.52,229.7a3.3,3.3,0,1,1,3.3-3.3h0a3.32,3.32,0,0,1-3.3,3.3h0"/><path class="cls-1" d="M31.42,238.3c-.1,0-.3-.1-.3-.2l-.4-2a.1.1,0,0,0-.1-.1h0a.11.11,0,0,0-.1.1h0l-.1,1.9a.27.27,0,0,1-.24.3H22.62a.27.27,0,0,1-.3-.23V238h0l-.1-1.9a.1.1,0,0,0-.1-.1h0a.11.11,0,0,0-.1.1h0l-.4,2c0,.1-.2.3-.3.2h-1a.27.27,0,0,1-.3-.23V234a3.25,3.25,0,0,1,3.18-3.3h5.92a3.24,3.24,0,0,1,3.3,3.18v0h0v4a.27.27,0,0,1-.24.3h-.06Zm-6.8-6.9h0m0,.1,1.1,4a.1.1,0,0,0,.1.1h0a.09.09,0,0,0,.1-.1h0l.2-4v-.1Zm2.4-.1h0l.2,4.1a.1.1,0,0,0,.1.1h0a.09.09,0,0,0,.1-.1h0l1.1-4v-.1Z"/><line class="cls-11" x1="296.52" y1="204.6" x2="304.52" y2="204.6"/><line class="cls-11" x1="304.32" y1="188.2" x2="318.52" y2="188.2"/><line class="cls-11" x1="296.52" y1="171.6" x2="304.52" y2="171.6"/><line class="cls-11" x1="290.22" y1="165.4" x2="290.22" y2="151.2"/><line class="cls-11" x1="191.42" y1="134.1" x2="211.42" y2="134.1"/><line class="cls-11" x1="147.62" y1="71" x2="292.82" y2="71"/><line class="cls-11" x1="147.62" y1="103.2" x2="211.42" y2="103.2"/><line class="cls-11" x1="289.92" y1="151.2" x2="406.02" y2="151.2"/><line class="cls-11" x1="126.62" y1="132" x2="146.72" y2="132"/><line class="cls-11" x1="77.12" y1="276" x2="139.62" y2="276"/><line class="cls-11" x1="211.42" y1="71" x2="211.42" y2="243.3"/><line class="cls-11" x1="304.52" y1="171.4" x2="304.52" y2="204.8"/><path class="cls-1" d="M304.52,71.5c-3.2,0-6.4-.6-8-1.7v3.4c0,1,3.1,2.3,8,2.3s8-1.4,8-2.3V69.8c-1.7,1.1-4.9,1.7-8,1.7m6.5,2.2a1.1,1.1,0,1,1,1.1-1.1h0a1.1,1.1,0,0,1-1.1,1.1"/><path class="cls-1" d="M304.52,76.6c-3.2,0-6.4-.6-8-1.7v3c0,1,3.1,2.3,8,2.3s8-1.4,8-2.3v-3c-1.7,1.1-4.9,1.7-8,1.7m6.5,2a1.1,1.1,0,1,1,1.1-1.1h0a1.1,1.1,0,0,1-1.1,1.1"/><path class="cls-1" d="M311,77.1a.4.4,0,1,1-.4.4h0c.1-.2.2-.4.4-.4"/><path class="cls-1" d="M304.52,65.5c4.9,0,8-1.4,8-2.3s-3.1-2.3-8-2.3-8,1.4-8,2.3,3.1,2.3,8,2.3"/><path class="cls-1" d="M311,72.2a.4.4,0,1,1-.4.4h0c.1-.2.2-.4.4-.4"/><path class="cls-1" d="M311,67.5a.4.4,0,1,1-.4.4h0c.1-.3.2-.4.4-.4"/><path class="cls-1" d="M304.52,66.6c-3.2,0-6.4-.6-8-1.7v3.2c0,.9,3.1,2.3,8,2.3s8-1.4,8-2.3V64.9c-1.7,1.1-4.9,1.7-8,1.7m6.5,2.3a1.1,1.1,0,1,1,1.1-1.1h0a1.1,1.1,0,0,1-1.1,1.1h0"/><path class="cls-1" d="M410.32,159.4a1.6,1.6,0,0,1-1.5-1.4V144.5a1.39,1.39,0,0,1,1.38-1.4h8.32a1.45,1.45,0,0,1,1.5,1.4h0V158a1.45,1.45,0,0,1-1.5,1.4h-8.2Zm0-15.9a.9.9,0,0,0-.9.9v13.5a.9.9,0,0,0,.9.9h8.2a.9.9,0,0,0,.9-.9V144.4a.9.9,0,0,0-.9-.9Z"/><path class="cls-1" d="M414,144.6c-.2,0-.3-.1-.3-.2s.1-.3.2-.3h1c.2,0,.3.2.2.3h0a.22.22,0,0,1-.2.2Z"/><path class="cls-1" d="M414.52,158.2a.43.43,0,0,1-.4-.4.45.45,0,0,1,.3-.4h0a.43.43,0,0,1,.4.4.45.45,0,0,1-.3.4"/><path class="cls-1" d="M410.42,156.8a.27.27,0,0,1-.3-.23V145.4a.27.27,0,0,1,.24-.3h8.16a.32.32,0,0,1,.3.3v11.1a.27.27,0,0,1-.24.3h-8.16Zm1.8-3.1c-.1,0-.1.1,0,0h0l-.1,2.1a.1.1,0,0,0,.1.1h6a.09.09,0,0,0,.1-.1h0v-2a.1.1,0,0,0-.1-.1h-6Zm1.7-1.2h0l-.1.6a.1.1,0,0,0,.1.1h4.3a.09.09,0,0,0,.1-.1h0v-.6a.1.1,0,0,0-.1-.1h-4.3Zm-3.2-5.5h0l-.1,3.8a.1.1,0,0,0,.1.1h7.5a.09.09,0,0,0,.1-.1h0v-3.7a.1.1,0,0,0-.1-.1h-7.5Zm0-1.2h0l-.1.6a.1.1,0,0,0,.1.1H415a.09.09,0,0,0,.1-.1h0v-.5a.1.1,0,0,0-.1-.1h-4.28Z"/><rect class="cls-1" x="411.22" y="147.6" width="1.4" height="0.6"/><rect class="cls-1" x="411.22" y="148.5" width="1.4" height="0.6"/><path class="cls-1" d="M466.32,153.6a3.59,3.59,0,0,0,3.6-3.58v-.92h-7.1v.9a3.56,3.56,0,0,0,3.5,3.6h0"/><path class="cls-1" d="M469.82,152.8a4.44,4.44,0,0,1-6.2.8h0a2.9,2.9,0,0,1-.8-.8,3.58,3.58,0,0,0-3.1,3.9h0v.1l.4,3.1h12.5l.4-3.1a3.57,3.57,0,0,0-3-4h-.2"/><path class="cls-12" d="M465.92,145.6h.9a.41.41,0,0,0,.4-.4h0v-2.7a.43.43,0,0,0-.4-.4h-.9c-.2,0-.5.2-.5.4h0v2.7a.68.68,0,0,0,.5.4"/><path class="cls-13" d="M213,71.1a1.6,1.6,0,1,1-1.6-1.6,1.6,1.6,0,0,1,1.6,1.6v0h0"/><path class="cls-13" d="M213,103.2a1.6,1.6,0,1,1-1.6-1.6h0a1.58,1.58,0,0,1,1.6,1.56v0"/><path class="cls-13" d="M213,134.1a1.6,1.6,0,1,1-1.6-1.6,1.64,1.64,0,0,1,1.6,1.6h0"/><path class="cls-13" d="M213,163.8a1.6,1.6,0,1,1-1.6-1.6,1.6,1.6,0,0,1,1.6,1.6v0h0"/><path class="cls-13" d="M213,204.8a1.6,1.6,0,1,1-1.6-1.6h0a1.64,1.64,0,0,1,1.6,1.6"/><path class="cls-13" d="M213,242.6a1.6,1.6,0,1,1-1.6-1.6h0a1.58,1.58,0,0,1,1.6,1.56v0"/><polygon class="cls-12" points="470.62 148.8 461.92 148.8 461.92 148 463.02 148 470.62 148 470.62 148.8"/><text class="cls-14" transform="translate(20.02 25.12)">SMA<tspan class="cls-15" x="47.18" y="0">R</tspan><tspan x="61.68" y="0">T SD Solution St</tspan><tspan class="cls-16" x="229.02" y="0">a</tspan><tspan class="cls-17" x="241.48" y="0">c</tspan><tspan x="253.22" y="0">k</tspan></text></svg>